<svg width="155" height="142" viewBox="0 0 155 142" fill="none" xmlns="http://www.w3.org/2000/svg">
<path d="M152.38 62.7967C152.125 62.178 151.67 61.705 151.398 61.0864C151.325 60.9226 151.234 60.7771 151.143 60.5951C150.433 59.6854 151.379 58.9576 151.634 58.1388C153.872 50.8064 151.743 40.5263 145.266 35.8321C143.374 33.8853 141.882 33.8125 139.389 33.3758C138.316 33.1939 137.551 33.4668 137.424 33.2485C136.915 19.0384 128.29 8.0488 115.609 2.24469C90.5181 -4.63291 76.8538 6.10196 70.9769 11.0691C68.6844 13.016 67.0469 15.2903 65.9734 18.0377C65.5185 16.3274 64.1357 15.0901 62.8803 13.7801C60.5878 11.3784 58.2043 10.3231 55.0384 9.61354C48.3427 8.10338 41.5561 9.35882 35.9157 13.2889C32.5497 15.636 28.0192 20.9306 26.1088 24.5696C24.6714 27.2988 23.9982 29.1365 23.6525 32.2841C22.9429 33.3394 22.67 31.52 19.2312 31.6837C14.8463 31.8839 12.9358 33.5214 10.152 36.5781C9.31508 37.506 9.44244 37.5242 9.42425 37.5606C6.71323 40.9994 4.65723 45.075 4.27514 49.5691C4.02042 52.4621 4.4207 55.446 5.49419 58.157C5.5791 58.5209 5.66401 58.8848 5.74891 59.2487C5.34863 59.9583 4.89376 60.6133 4.51167 61.3229C3.89305 62.5238 2.63762 63.852 2.05539 65.6169C0.053971 71.7849 0.781759 79.7177 4.74821 84.9942C6.73143 87.6143 13.4635 92.9817 16.7749 92.7088C16.7749 92.727 17.0478 92.6542 17.0114 92.9635C11.0618 94.3099 8.24159 100.169 11.8623 105.591C14.7735 109.921 22.2151 113.087 27.1277 111.195C25.2354 114.761 22.3425 118.236 25.5993 122.384C27.3096 124.568 30.0752 124.932 32.2222 126.551C32.5861 127.17 37.3713 130.972 34.442 135.994C32.3132 139.615 27.8009 137.177 25.2354 135.375C23.2158 136.449 35.0424 148.203 44.2307 135.63C45.0677 133.61 47.524 137.868 53.5464 136.121C54.0923 135.958 54.6017 135.576 55.1839 135.448C49.1251 131.063 43.9396 126.151 39.4455 116.944C39.027 116.089 36.8073 100.351 38.6268 83.2293C39.2818 75.6603 61.3337 54.4817 66.0462 44.4928C66.8285 42.8371 67.1015 47.5859 67.52 49.278C71.5956 65.4895 107.385 73.1495 109.986 74.4413C113.971 76.3881 116.846 82.3378 118.683 88.5786C119.593 103.498 117.792 116.18 117.41 116.944C113.079 125.823 108.112 130.718 102.308 134.993C104.728 136.74 108.294 137.122 110.914 135.885C112.097 135.521 112.042 136.158 113.844 135.139C117.137 141.252 122.814 143.745 129.291 140.543C131.529 139.433 133.621 137.65 133.949 135.03C132.894 137.213 130.255 137.213 128.545 138.341C126.471 139.032 123.541 136.74 123.141 134.775C122.65 132.246 124.033 128.48 126.325 126.806C129.273 124.659 137.133 123.494 133.185 116.999C132.384 115.652 130.965 111.813 130.201 109.557C130.965 109.939 131.693 110.412 132.457 110.631C142.791 113.596 153.89 99.1315 142.264 93.2182C141.9 93.0181 141.263 92.5996 141.045 92.4904C142.173 92.0538 143.01 91.1804 143.974 90.5254C154.855 83.1384 157.657 75.4238 152.307 62.8149L152.38 62.7967Z" fill="#3E1937"/>
</svg>
