<svg width="154" height="216" viewBox="0 0 154 216" fill="none" xmlns="http://www.w3.org/2000/svg">
<path d="M149.936 190.488C155.644 179.89 155.431 165.171 148.693 155.063C142.38 145.577 135.02 147.131 138.569 137.53C142.085 128.044 158.588 115.696 139.567 91.4744C133.908 84.2944 128.723 80.2711 126.483 70.736C125.272 65.6496 125.321 60.3505 124.749 55.1823C123.67 45.6636 123.817 38.1239 120.3 28.6379C116.31 17.8272 107.87 8.12856 97.3378 3.33651C85.2677 -2.15882 68.6182 -1.4719 59.4429 9.99305C47.3728 7.65427 37.0364 20.9674 33.1439 30.8622C24.9499 51.6987 33.1112 68.9533 22.2841 84.1963C17.8682 90.3949 3.78639 99.7991 6.22331 117.773C7.43359 126.622 16.9686 136.009 17.0995 141.603C17.2303 148.194 10.0995 148.259 4.75135 157.042C-10.0501 181.264 12.242 213.467 37.0855 215.185C32.7677 210.458 32.3752 207.318 32.1135 203.523C31.8191 199.32 36.6112 192.206 39.457 189.098C47.4383 180.397 38.492 163.175 38.8191 159.512C38.8355 159.414 39.228 158.285 39.3098 157.893C39.6205 156.551 40.013 155.881 40.7981 154.687C46.964 145.185 57.9383 140.016 57.464 139.264C59.2794 135.715 60.5224 133.327 61.4219 129.369C61.4219 129.353 61.4383 129.32 61.4383 129.304C61.749 127.537 61.9126 126.932 62.0925 125.068C62.256 123.416 62.256 121.682 62.3378 120.112C62.3705 119.311 62.4032 116.301 62.4359 112.752C54.0294 107.159 47.3238 103.07 41.7467 91.6706C41.4032 90.9673 39.6859 78.979 40.6672 65.1099C46.4733 59.6473 64.9383 49.0491 65.4943 28.7688C65.527 27.6893 65.8869 26.6262 65.985 25.5468C67.5224 24.8272 84.9079 66.3856 113.071 68.1356C113.644 80.68 112.139 91.0164 111.828 91.6706C106.153 103.25 99.3004 107.29 90.7303 113.03C90.763 116.465 90.7957 119.327 90.8121 120.112C90.8939 121.682 90.8939 123.416 91.0574 125.068C91.3027 126.965 91.3845 127.554 91.7934 129.369C91.8915 129.827 91.9897 130.269 92.1041 130.694C92.6602 132.837 93.3798 134.537 94.2957 136.369C95.2116 138.201 96.6018 139.82 98.3518 140.949C104.583 144.988 119.892 155.979 118.599 170.731C118.223 174.853 117.34 178.974 116.866 183.08C116.13 189.262 123.375 188.035 123.375 199.173C123.375 210.311 118.42 211.112 113.66 215.185C111.976 215.577 139.763 214.301 149.952 190.488H149.936Z" fill="#915F39"/>
</svg>
