<svg width="154" height="126" viewBox="0 0 154 126" fill="none" xmlns="http://www.w3.org/2000/svg">
<g clip-path="url(#clip0_47_826)">
<path d="M151.146 62.1101C149.709 57.9061 139.736 50.7612 135.772 48.1069C136.253 47.4982 137.353 48.4291 138.202 48.8433C142.835 51.1448 148.497 49.7383 149.581 56.0035C149.535 46.5316 139.419 49.5287 131.128 37.965C126.74 29.0812 122.285 21.7472 122.285 21.7472L122.168 21.7165C119.79 17.8858 116.634 13.9272 111.653 9.86129C103.996 3.62683 91.3689 -2.8429 82.1476 3.32508C82.0044 3.35576 81.5236 3.05401 80.9969 2.91081C80.0558 2.65509 78.1686 1.55037 76.89 1.23328C60.4574 -2.97076 42.9917 6.0306 33.5914 19.4559C28.0116 27.3986 25.5669 37.3717 17.6702 43.5755C13.2411 47.0584 4.93023 49.4571 4.81771 55.3847C7.98353 49.0377 13.5429 49.7128 18.197 46.9459V47.1556C13.3997 50.8789 6.87882 55.5483 3.66697 60.6474C-7.01192 77.5096 7.59995 97.9059 21.9817 106.999C26.2675 109.7 28.2622 110.37 33.4737 110.804C35.5349 110.963 38.4756 110.436 38.3171 111.014C32.4816 115.264 24.9378 113.27 20.0945 108.488C29.2186 123.13 46.5922 127.14 62.8151 125.447C62.8305 125.416 62.8305 125.386 62.8305 125.35C62.989 123.734 62.989 122.041 63.0708 120.506C63.1015 119.724 63.1373 116.799 63.168 113.316C54.9543 107.848 48.3976 103.854 42.9508 92.7147C42.6081 92.0141 40.8948 79.9747 41.9432 66.1863C62.5799 56.7297 77.7594 35.1521 83.4569 26.0842C87.8246 33.0347 97.767 47.3397 111.469 57.9009C114.225 74.7938 111.847 91.8811 111.438 92.7199C105.894 104.038 99.1939 107.981 90.8216 113.592C90.8523 116.947 90.883 119.76 90.9035 120.512C90.9853 122.046 90.9853 123.739 91.1439 125.355C91.1439 125.37 91.1439 125.401 91.1592 125.416C108.359 127.109 124.597 123.754 134.918 108.794C129.389 113.51 123.922 115.315 117.642 110.584C116.619 109.817 126.863 110.922 131.977 108.058C140.529 103.281 149.688 91.6254 152.42 82.1484C154.419 75.1979 155.043 68.5952 151.141 62.1203L151.146 62.1101Z" fill="#1E1E22"/>
</g>
<defs>
<clipPath id="clip0_47_826">
<rect width="154" height="125.61" fill="white" transform="translate(0 0.189941)"/>
</clipPath>
</defs>
</svg>
