<svg width="154" height="261" viewBox="0 0 154 261" fill="none" xmlns="http://www.w3.org/2000/svg">
<g clip-path="url(#clip0_50_1118)">
<path d="M143.744 31.405C141.577 27.1242 140.083 24.7379 137.259 20.8943C128.188 8.52543 108.059 -5.95647 92.921 2.55051C80.5886 -4.55382 65.5602 5.15543 56.9257 14.136C53.1367 18.1072 49.7303 22.5884 46.9432 27.3428C45.7956 29.3466 44.6844 31.4597 43.719 33.5363C42.2252 36.7606 40.7497 40.6771 39.6749 44.0471C36.815 53.0095 33.9186 67.7828 33.4814 77.0731C32.2245 103.396 43.045 121.083 28.9092 147.297C24.3369 155.804 19.1088 161.141 15.4291 174.257C15.3381 174.603 15.247 174.967 15.1559 175.331C13.225 182.673 12.4053 190.414 12.4599 197.992C12.5328 208.74 14.2087 218.522 18.2344 227.94C21.1308 234.735 20.5115 242.495 16.4128 248.634C13.8808 252.423 11.2394 254.007 0 260.201C5.13698 260.055 18.872 256.12 23.5172 254.062C41.0958 246.211 46.506 227.357 46.7793 216.118C47.0525 205.06 48.0726 202.437 48.0726 202.273C50.1128 218.085 49.9307 226.792 42.1159 242.458C52.3352 236.155 55.7234 217.83 56.1242 217.921C57.1807 221.528 57.4358 222.912 56.9439 224.788C55.5959 229.834 52.5174 234.844 53.155 243.132C53.246 244.207 54.1386 249.034 57.0714 255.392C58.2009 250.346 55.5777 243.187 56.78 238.687C64.9955 226.009 59.6035 212.055 61.7712 206.062C62.7367 168.464 72.6828 165.13 72.0088 164.056C74.0308 160.103 75.4152 157.443 76.4171 153.017C76.7814 150.995 76.9636 150.357 77.1457 148.244C77.3279 146.404 77.3279 144.473 77.419 142.724C77.4554 141.832 77.4918 138.48 77.5465 134.527C68.2016 128.297 60.6965 123.743 54.4847 111.028C54.1022 110.245 52.1895 96.8923 53.2825 81.445C58.128 64.7043 64.8862 46.4152 70.3875 41.8976C70.8247 41.5332 70.9158 40.6224 71.2072 40.2763C72.8649 46.2148 89.5692 58.7476 100.025 64.7954C103.395 66.7445 124.581 73.3388 133.197 75.9255C135.292 93.577 132.96 110.172 132.523 111.046C126.22 123.943 118.588 128.461 109.024 134.837C109.061 138.662 109.079 141.868 109.115 142.743C109.206 144.491 109.206 146.422 109.388 148.262C109.662 150.375 109.753 151.013 110.208 153.035C111.119 157.443 112.595 160.121 114.617 164.074C123.688 176.005 144.036 178.72 145.347 178.264C144.072 169.448 145.766 152.434 147.187 143.817C148.681 134.764 151.031 125.783 152.324 116.73C153.126 111.083 153.945 105.326 153.945 99.6066C153.945 83.9588 153.727 51.3153 143.708 31.405H143.744Z" fill="#83503E"/>
</g>
<defs>
<clipPath id="clip0_50_1118">
<rect width="154" height="260.201" fill="white"/>
</clipPath>
</defs>
</svg>
