<svg width="154" height="122" viewBox="0 0 154 122" fill="none" xmlns="http://www.w3.org/2000/svg">
<g clip-path="url(#clip0_47_833)">
<path d="M153.178 59.8902C152.449 58.5559 150.618 57.3613 149.237 56.6941C156.452 53.2654 153.318 46.1441 148.306 46.0044C148.244 45.9424 148.182 45.8803 148.12 45.8183C153.923 43.8789 149.811 36.3542 147.841 35.8733C145.591 35.3302 144.474 37.3627 144.272 37.3782C143.745 37.4248 143.947 36.4163 142.488 36.0594C149.78 35.4078 149.765 23.7097 142.023 23.6786C140.797 23.6786 140.176 24.1596 139.866 24.2372C138.346 24.6561 138.206 25.5559 137.803 24.4233C138.641 23.7252 142.736 21.5686 139.68 17.0073C137.632 13.9664 133.877 14.3542 130.868 14.6645C129.937 14.7576 129.642 14.9748 128.618 14.8507C130.495 13.6406 129.673 10.0877 127.966 9.03265C125.499 7.5122 122.288 8.98611 120.83 11.2823C120.302 10.7703 120.302 10.0101 119.992 9.40501C119.697 8.84647 119.635 8.8775 119.619 8.84647C116.873 4.22306 112.964 4.17652 108.356 6.41065C107.875 6.31756 108.045 5.69697 107.797 4.90571C105.485 -2.49485 96.0369 0.530537 97.1074 5.8366C97.1384 6.00726 97.1539 6.22447 96.9212 6.20896C96.0524 5.82109 94.0044 5.47976 93.0735 5.46425C88.0002 5.32461 85.4868 7.55875 86.0298 12.7872C85.13 13.2527 82.5545 14.3077 82.0891 15.13C81.4995 16.1539 79.9325 19.5207 77.0312 19.35C76.5503 15.5334 73.1215 15.6885 69.8789 13.7181C69.3204 13.3768 68.7308 12.9579 68.1878 12.5855C68.8704 8.28794 67.4896 5.63491 62.9283 5.44873C60.6941 5.35564 58.9875 6.02278 56.924 6.00727C56.9706 5.86763 56.924 5.35564 56.924 5.07638C56.7378 0.73223 49.3683 -2.2311 46.4205 3.57144C45.5827 5.23152 45.6758 6.30205 45.381 6.37962C41.9678 4.17652 36.8944 4.42475 34.5982 8.07073C34.0707 8.89302 33.8845 9.85494 33.4656 10.6927C32.24 10.3359 31.5728 9.03265 30.3627 8.62927C27.8027 7.76044 25.2893 9.12574 24.8239 11.8253C24.5757 13.2372 24.7929 14.2146 25.9565 15.1145C25.8944 15.6575 23.5982 14.3232 20.9762 14.2767C19.5333 14.2456 19.0058 14.4163 17.6871 14.8352C13.467 16.185 12.2724 20.2499 14.8789 23.7562C14.6462 24.1596 14.46 23.8183 13.7463 23.8493C11.0002 23.9734 8.64194 23.6321 6.99737 26.5644C5.74067 28.814 5.97339 32.0101 7.92826 33.7943C8.44025 34.9889 9.51077 35.4078 10.3641 36.2301C10.3331 36.2301 10.2555 36.7886 10.1779 36.8817C9.47974 37.2851 8.68849 35.4544 6.51641 35.8422C3.59963 36.3697 0.419092 43.972 5.67861 45.8803C-0.977241 47.5869 -1.69092 53.436 4.74772 56.57C-2.14085 60.5108 -1.52026 66.8874 6.62502 68.02C-0.635915 71.4642 0.698358 78.7562 8.50231 80.1215C8.16098 80.5714 7.72657 80.8507 7.36973 81.2541C6.42332 82.3401 6.33023 82.247 5.67861 83.6899C5.57001 83.9381 4.96493 84.6829 4.9339 84.9156C4.515 87.5376 6.54744 89.2752 8.87466 89.8958C8.8126 90.2061 8.90569 90.6561 8.87466 91.0284C8.50231 95.0467 11.6518 95.9001 15.0651 95.7139C15.0806 96.1173 14.7082 97.1568 16.57 97.9635C16.7096 98.0256 15.1582 99.6857 17.7026 100.586C15.8563 105.178 23.9551 108.607 27.4614 108.002C22.3415 107.055 25.0256 101.796 25.1187 102.463C25.7858 107.071 26.4219 106.993 31.216 106.776C27.0115 109.041 26.6391 112.951 31.216 115.03C33.8535 116.224 34.5362 116.1 37.4064 115.775C38.3838 115.666 39.6871 115.185 40.6025 115.402C40.649 117.248 39.3147 116.861 39.0975 117.186C37.6546 119.343 42.5573 124.463 46.4515 119.498C46.9015 118.676 46.979 117.807 47.0101 117.714C47.0566 117.636 48.8563 118.04 48.8563 116.705C49.7872 116.473 49.7407 118.086 51.0129 119.141C53.1074 120.863 57.8549 119.498 60.3683 117.698C54.1624 113.478 49.0115 109.274 44.6053 100.275C44.2329 99.5305 42.247 85.35 44.0467 70.2851C44.8535 69.6645 46.0326 68.5009 46.0481 66.7943C46.0481 66.6081 45.6137 66.1582 45.6758 65.9565C47.2273 66.3444 49.7252 63.2724 49.9889 62.2019C50.9663 58.3077 47.4135 59.5799 46.9635 58.3232C46.7308 57.7026 46.8859 57.3147 46.9015 57.2061C47.0721 57.2061 47.1807 57.2682 47.2583 57.3458C47.5376 57.6095 47.1962 57.7802 48.0185 58.168C49.8958 59.0524 51.8972 58.4163 52.2386 56.3838C52.3937 55.484 52.0524 55.4995 51.8662 54.5996C52.1765 54.6772 52.5023 54.6927 52.7971 54.7858C52.8902 54.8169 53.0298 55.3288 54.5813 55.1582C54.845 55.2668 54.1624 58.9748 56.6448 58.3542C57.7153 58.0905 57.4205 56.027 57.5756 55.9184C57.8084 55.7477 61.113 56.7097 60.2907 52.2569C62.7731 51.6829 62.8041 48.3627 63.673 46.1596C64.5263 46.4389 65.5658 46.6561 66.3881 46.3458C68.3429 45.6011 67.9395 46.4544 70.6081 45.2132C73.2922 43.9875 75.2781 40.4036 76.1469 37.704C76.5192 39.1934 79.0637 42.2499 80.1807 43.1497C80.4445 43.3514 82.8493 44.7322 83.1906 44.8408C86.0298 45.7717 86.8676 44.0185 89.7534 47.3697C90.2188 52.0087 93.1511 51.9466 93.3218 52.9085C92.546 55.5926 93.9424 56.3838 96.4247 56.1046C95.4939 60.1695 99.4191 59.7971 99.7139 58.075C99.9311 56.8493 98.3641 56.5545 98.9692 55.546C99.1398 54.6617 100.722 52.924 99.3415 51.1398C99.357 50.9692 99.6828 51.0778 99.7139 51.0467C100.505 50.752 100.986 50.814 101.777 51.0467C105.082 51.9932 102.01 54.2273 102.336 57.051C102.491 58.4008 105.408 59.3937 105.532 59.8592C102.367 61.3951 105.485 64.0482 106.665 65.6772C106.711 65.7393 106.975 66.5926 107.223 66.9029C107.89 67.7097 107.906 69.7111 110.031 69.9128C110.202 70.1765 111.009 70.6575 111.722 71.0453C113.367 85.831 111.428 99.5615 111.071 100.306C106.556 109.538 101.25 113.727 94.8422 118.04C97.4332 119.56 101.653 120.848 103.546 119.358C105.113 118.133 104.291 116.287 106.649 116.349C108.185 124.277 116.765 120.274 116.78 119.064C116.78 118.164 115.554 119.079 114.717 118.133C114.655 118.071 113.972 116.721 113.972 116.628C113.46 113.153 116.454 117.776 122.986 114.844C124.01 114.378 123.948 114.518 124.863 113.711C128.261 110.748 126.182 108.343 122.986 106.574C126.539 104.65 129.052 102.339 129.456 102.447C130.061 102.602 127.594 106.714 131.333 107.133C135.072 107.552 135.988 105.1 136.313 101.532C136.313 101.516 136.624 98.6152 136.872 97.948C136.965 97.6688 138.299 96.5051 138.842 95.326C141.107 95.9466 145.25 95.2329 145.684 92.4247C145.839 91.4318 145.452 90.6405 145.312 89.7097C148.508 88.3133 149.796 87.4755 148.694 83.8916C148.461 83.1469 148.927 83.4727 147.562 81.8281C146.662 80.7576 145.995 80.5249 146.057 80.137C146.801 79.9819 147.468 79.4233 147.562 79.3923C154.621 76.4135 153.55 71.1539 147.562 67.9424C151.983 67.4614 155.738 64.5757 153.193 59.8747L153.178 59.8902Z" fill="#B52A2A"/>
</g>
<defs>
<clipPath id="clip0_47_833">
<rect width="154" height="121.279" fill="white" transform="translate(0 0.359863)"/>
</clipPath>
</defs>
</svg>
