<svg width="71" height="85" viewBox="0 0 71 85" fill="none" xmlns="http://www.w3.org/2000/svg">
<g clip-path="url(#clip0_100_5670)">
<path d="M70.4285 60.7148C70.4285 70.2024 62.8343 77.9798 53.1771 78.73C52.673 78.7678 52.1617 78.7885 51.6469 78.7885C47.553 78.7885 43.7702 77.529 40.6846 75.3885C38.4357 73.833 36.5622 71.8095 35.2142 69.466C33.7197 66.8747 32.8688 63.8911 32.8688 60.7148C32.8688 57.5385 33.7197 54.5549 35.2142 51.9636C35.8364 50.8796 36.5765 49.8609 37.4131 48.9284C40.8527 45.0775 45.9548 42.6411 51.6469 42.6411C52.3834 42.6411 53.1092 42.6824 53.8243 42.7616L53.9244 43.264C54.2069 44.6715 55.3868 45.7348 56.8598 45.9516C59.7202 46.3749 62.366 47.4176 64.6507 48.9352C66.399 50.0984 67.8256 51.6332 68.8196 53.3883C68.8232 53.3917 68.8232 53.3986 68.8268 53.402C69.7599 55.4255 70.3141 57.6417 70.4107 59.9749V59.9852C70.425 60.2261 70.4285 60.4705 70.4285 60.7148Z" fill="#AD775C"/>
<path d="M37.5598 60.7148C37.5598 63.8911 36.7088 66.8747 35.2143 69.466C33.8664 71.8095 31.9928 73.833 29.7439 75.3885C26.6583 77.529 22.8755 78.7885 18.7817 78.7885C18.2668 78.7885 17.7555 78.7678 17.2514 78.73C7.59419 77.9798 0 70.2024 0 60.7148C0 60.4705 0.00357542 60.2261 0.0178771 59.9852V59.9784C0.114413 57.6383 0.672179 55.4152 1.60894 53.3883C2.6029 51.6332 4.0295 50.0984 5.77787 48.9352C8.06257 47.4176 10.7084 46.3749 13.5723 45.9516C15.0418 45.7348 16.2217 44.6715 16.5041 43.264L16.6042 42.7616C17.3193 42.6824 18.0451 42.6411 18.7817 42.6411C24.4737 42.6411 29.5759 45.0775 33.0154 48.9284C33.8521 49.8609 34.5922 50.8796 35.2143 51.9636C36.7088 54.5549 37.5598 57.5385 37.5598 60.7148Z" fill="#AD775C"/>
<path d="M35.2143 84.9999C48.3141 84.9999 58.9336 76.908 58.9336 66.9262C58.9336 56.9444 48.3141 48.8525 35.2143 48.8525C22.1145 48.8525 11.495 56.9444 11.495 66.9262C11.495 76.908 22.1145 84.9999 35.2143 84.9999Z" fill="#AD775C"/>
<path d="M70.4286 59.3279C70.4286 59.5447 70.4214 59.7615 70.4107 59.9749V59.9852C70.0675 66.4858 64.6865 71.6994 57.9504 72.0848C57.6858 72.102 57.4176 72.1089 57.1495 72.1089C55.1401 72.1089 53.2451 71.6753 51.5396 70.9079C48.5506 73.069 44.8286 74.6451 40.6847 75.3885C38.9291 75.7051 37.0985 75.8737 35.2143 75.8737C33.33 75.8737 31.4994 75.7051 29.7439 75.3885C25.6 74.6451 21.878 73.069 18.8889 70.9079C17.1835 71.6753 15.2885 72.1089 13.2791 72.1089C13.0109 72.1089 12.7428 72.102 12.4782 72.0848C5.74212 71.6994 0.361117 66.4858 0.0178771 59.9852V59.9783C0.00715084 59.765 0 59.5447 0 59.3279C0 59.1937 0.00357542 59.0561 0.0107263 58.915C0.0893854 56.9534 0.650726 55.0676 1.60894 53.3883C2.6029 51.6332 4.0295 50.0984 5.77787 48.9352C8.06257 47.4176 10.7084 46.3749 13.5723 45.9516C15.0418 45.7348 16.2217 44.6715 16.5041 43.264L16.6042 42.7615L17.7841 36.9182L23.6943 8.86822C24.2127 6.29413 25.6429 4.07794 27.6273 2.50526C29.608 0.92915 32.143 0 34.8675 0C34.9855 0 35.0999 0.0103239 35.2143 0.0137652C35.3287 0.0103239 35.4467 0 35.5611 0C41.01 0 45.6974 3.72004 46.7343 8.86822L52.6445 36.9182L53.8243 42.7615L53.9245 43.264C54.2069 44.6715 55.3868 45.7348 56.8599 45.9516C59.7202 46.3749 62.366 47.4176 64.6507 48.9352C66.3991 50.0984 67.8257 51.6332 68.8196 53.3883C68.8232 53.3917 68.8232 53.3986 68.8268 53.402C69.7814 55.0779 70.3392 56.9603 70.4179 58.915C70.425 59.0561 70.4286 59.1937 70.4286 59.3279Z" fill="#E6AB87"/>
<path d="M36.7807 51C43.5807 51 48.2678 52.5543 54.2907 55.4929C15.895 61.6614 13.6364 50.9758 36.7807 51Z" fill="#F8C1A8"/>
</g>
<defs>
<clipPath id="clip0_100_5670">
<rect width="70.4286" height="85" fill="white"/>
</clipPath>
</defs>
</svg>
