<svg width="42" height="85" viewBox="0 0 42 85" fill="none" xmlns="http://www.w3.org/2000/svg">
<path d="M1.03638 13.0362C1.03638 10.7168 1.86545 8.46874 3.40268 6.78C5.91752 4.02243 10.6087 0.644949 18.2983 1.11167C31.0556 1.88478 52.114 28.869 32.0574 55.0338C19.7837 71.0484 18.7992 72.8369 18.7992 72.8369C18.7992 72.8369 15.2964 83.9313 6.54278 83.9313C1.26783 83.9313 1.03983 79.5455 1.03983 79.5455V13.0362H1.03638Z" fill="#E6AB87"/>
<path d="M17.6039 26.1006C17.6039 26.1006 17.3483 18.0274 24.271 18.8362C31.1938 19.6449 31.5668 41.3064 31.5668 41.3064L33.2042 26.9521L26.9068 15.0454L16.9372 15.7686L15.6245 21.355L17.6039 26.1006Z" fill="#EFC6AD"/>
<path d="M19.4313 53.345C20.9512 54.5741 25.0862 52.8996 24.1432 47.0354C23.2001 41.1711 10.809 19.4241 22.3019 16.7912C33.9711 14.1156 31.4252 43.5759 31.4252 43.5759C31.4252 43.5759 43.4674 12.1347 21.763 12.1988C21.763 12.1988 14.9232 13.3959 13.7798 17.9206C15.9181 31.7049 25.4938 48.7811 19.4313 53.345Z" fill="#CB8F6A"/>
<path d="M15.0752 57.5812C14.6434 57.5812 14.2392 57.2998 14.0941 56.8544C13.911 56.2951 14.1978 55.6894 14.7401 55.5006C15.051 55.3901 22.3295 52.686 20.0462 44.1497C19.4554 41.9443 18.3742 39.2651 17.2308 36.4292C14.3981 29.4141 11.1924 21.4657 13.5932 16.232C14.5847 14.073 16.4501 12.5588 19.1342 11.7287C23.8253 10.2751 27.6391 10.8451 30.4752 13.4174C32.8864 15.6085 34.5203 19.2995 35.1939 24.0914C35.9159 29.2182 35.3321 33.5897 35.1352 34.8081C34.3545 39.6677 30.8206 48.9131 27.9638 52.3796C27.5941 52.8285 26.9378 52.8855 26.5025 52.5007C26.0673 52.1195 26.012 51.4426 26.3851 50.9937C28.9725 47.8514 32.3578 39.0157 33.0902 34.4554C33.9469 29.1184 33.6256 19.1249 29.1037 15.0207C26.8411 12.9685 23.6872 12.5481 19.7283 13.7737C17.5969 14.4328 16.2048 15.5373 15.4655 17.1476C13.4585 21.5191 16.4777 29.0044 19.1445 35.6062C20.3156 38.5063 21.421 41.246 22.0463 43.5796C24.8548 54.0826 15.507 57.4886 15.4103 57.5207C15.2997 57.5598 15.1857 57.5777 15.0786 57.5777L15.0752 57.5812Z" fill="#402D27"/>
<path d="M6.43229 35.0325C6.43229 35.0325 16.73 46.3549 12.0147 53.5374C7.94189 59.7366 6.43229 59.2306 6.43229 59.2306C6.43229 59.2306 8.73987 52.2013 7.84171 50.1456C6.94355 48.0899 4.65325 43.7719 4.75343 40.3802C4.85361 36.9884 6.43575 35.036 6.43575 35.036L6.43229 35.0325Z" fill="#CB8F6A"/>
<path d="M6.43209 36.1012C5.90356 36.1012 5.45103 35.688 5.40266 35.1322C5.38539 34.9362 4.98122 30.2797 6.43209 25.0674C8.39077 18.0381 12.7952 13.4208 19.1721 11.7178C19.7248 11.5717 20.2914 11.9137 20.4365 12.4838C20.5815 13.0538 20.2465 13.6381 19.6938 13.7878C14.0043 15.3055 10.2182 19.2815 8.44259 25.5983C7.08499 30.4329 7.46498 34.8899 7.46843 34.9326C7.52025 35.5205 7.10226 36.0407 6.53227 36.0977C6.50118 36.0977 6.46664 36.1012 6.43555 36.1012H6.43209Z" fill="#402D27"/>
<path d="M5.55127 63.0357C4.99855 63.0357 4.53911 62.5832 4.51493 62.006C4.40093 58.8423 5.12292 56.7617 5.76199 54.9269C6.28016 53.4376 6.77069 52.0339 6.80524 50.1207C6.84323 48.2075 5.35782 46.533 4.10731 45.4642C2.64262 44.2137 1.13302 43.4726 1.1192 43.4619C0.601031 43.209 0.379946 42.5713 0.625212 42.0404C0.870479 41.506 1.48537 41.278 2.00354 41.5309C2.28681 41.6699 8.97809 44.9761 8.87791 50.1635C8.83646 52.4223 8.26302 54.0647 7.7103 55.6501C7.07814 57.4635 6.48397 59.1772 6.58415 61.9241C6.60488 62.5155 6.15925 63.0107 5.58927 63.0321C5.57545 63.0321 5.56163 63.0321 5.54781 63.0321L5.55127 63.0357Z" fill="#402D27"/>
</svg>
