<svg width="60" height="20" viewBox="0 0 60 20" fill="none" xmlns="http://www.w3.org/2000/svg">
<path d="M50.8382 5.91866C53.2907 5.91866 57.7527 4.85853 57.6578 5.87119C56.5343 6.75726 51.5502 11.0136 50.1894 12.4376C36.123 21.156 22.1199 22.1053 9.77811 9.82688C8.86039 8.90916 8.00597 7.59587 7.16737 6.56739C21.6768 6.09271 36.3287 5.85537 50.8382 5.91866Z" fill="#FBFBFA"/>
<path d="M57.6581 5.85494C43.1328 5.79165 21.6771 6.09227 7.16766 6.56696C6.69297 5.98151 6.04423 5.41189 5.87018 4.60493C17.6581 3.90872 19.7151 -3.16404 32.9271 1.99418C38.0378 -2.48366 55.7435 1.36128 57.6739 5.85494H57.6581Z" fill="#CF8065"/>
<path d="M5.87023 4.60569C6.04428 5.39683 6.69302 5.96645 7.1677 6.56772C7.99049 7.5962 8.86073 8.90948 9.77845 9.8272C6.23415 9.6848 3.57594 6.01392 0 4.28924C0.696201 3.15 3.54428 4.74811 5.87023 4.62153V4.60569Z" fill="#402D27"/>
<path d="M50.1893 12.4218C51.5501 10.9978 54.2874 7.45348 55.4108 6.55158C64.2241 -0.473722 59.1608 6.86802 50.1893 12.4218Z" fill="#402D27"/>
</svg>
