<svg width="60" height="39" viewBox="0 0 60 39" fill="none" xmlns="http://www.w3.org/2000/svg">
<g clip-path="url(#clip0_100_5825)">
<path d="M59.904 5.21713V8.54582C59.904 18.408 55.1316 27.1555 47.7698 32.6014C42.8 36.2784 36.6535 38.4537 29.9961 38.4537C23.3388 38.4537 17.1962 36.2784 12.2263 32.6014C4.86453 27.1555 0.0921173 18.408 0.0921173 8.54582V5.21713C0.0921173 1.98133 3.07245 -0.453256 6.23471 0.235705C17.7109 2.73609 42.2852 2.73609 53.7614 0.235705C56.9237 -0.453256 59.904 1.98133 59.904 5.21713Z" fill="black"/>
<path d="M59.904 5.21713V8.19359C52.1822 9.79601 40.9769 11.6926 31.2695 11.6926C17.4632 11.6926 4.32265 7.85685 0.0921173 6.49441V5.21713C0.0921173 1.98133 3.07245 -0.453256 6.23471 0.235705C17.7109 2.73609 42.2852 2.73609 53.7614 0.235705C56.9237 -0.453256 59.904 1.98133 59.904 5.21713Z" fill="white"/>
<path d="M47.7698 32.6012C42.8 36.2782 36.6535 38.4535 29.9961 38.4535C23.3387 38.4535 17.1962 36.2782 12.2263 32.6012C14.0146 24.3994 21.2912 18.2568 30 18.2568C38.7088 18.2568 45.9816 24.3994 47.7698 32.6012Z" fill="#B63131"/>
</g>
<defs>
<clipPath id="clip0_100_5825">
<rect width="60" height="38.8889" fill="white"/>
</clipPath>
</defs>
</svg>
