<svg width="127" height="32" viewBox="0 0 127 32" fill="none" xmlns="http://www.w3.org/2000/svg">
<path d="M116.736 25.3159C113.615 26.9865 111.423 28.2821 108.501 29.305H108.468C107.539 29.6459 106.509 29.9869 105.38 30.2596C99.2374 31.828 95.8506 31.4188 90.9363 30.7028C88.6784 30.3278 80.9418 28.5549 79.9789 26.6456C79.4144 21.7701 81.0747 17.031 83.8638 13.0419C84.0298 12.8033 84.1959 12.5646 84.3619 12.3259C84.3619 13.5193 86.5866 14.883 89.741 16.2468C95.5517 18.7357 104.617 21.361 109.232 23.4407C109.498 23.543 109.73 23.6794 109.962 23.7817C110.294 23.0316 110.527 22.3497 110.627 21.7019C110.627 21.6337 110.328 21.2928 110.195 19.929C112.32 19.2812 110.793 11.5077 107.539 8.9165C107.981 8.98469 108.424 9.05288 108.867 9.12107C110.726 10.4848 112.486 12.36 113.847 14.4739H113.881C116.039 17.7811 117.334 21.6678 116.736 25.3159Z" fill="#FBFBFA"/>
<ellipse cx="107.903" cy="17.0312" rx="3" ry="4.5" fill="#776959"/>
<path d="M114.079 17.0992C114.079 22.0088 111.921 26.3728 108.501 29.305H108.468C107.538 29.6459 106.509 29.9869 105.38 30.2596C99.2369 31.828 95.8501 31.4188 90.9358 30.7028C86.3868 27.9753 83.332 22.9293 83.332 17.0992C83.332 15.7013 83.4981 13.3375 83.8633 12.0419C84.0293 11.8033 84.1953 11.5646 84.3614 11.3259C84.3614 12.5193 86.586 14.883 89.7405 16.2468C95.5512 18.7357 104.616 21.361 109.231 23.4407C109.497 23.543 109.729 23.6794 109.962 23.7817C110.294 23.0316 110.327 21.2928 110.194 19.929C112.319 19.2812 110.792 11.5077 107.538 8.9165C107.981 8.98469 108.423 9.05288 108.866 9.12107C110.726 10.4848 112.485 12.36 113.847 14.4739H113.88C114.013 15.3603 114.079 16.2127 114.079 17.0992Z" fill="#1E1E22"/>
<path d="M98.4071 28.4529C103.468 28.4529 107.571 24.2399 107.571 19.0429C107.571 13.8458 103.468 9.63281 98.4071 9.63281C93.3457 9.63281 89.2427 13.8458 89.2427 19.0429C89.2427 24.2399 93.3457 28.4529 98.4071 28.4529Z" fill="#0B0B0E"/>
<path d="M104.051 14.5089C103.354 15.4976 101.561 14.9521 101.428 14.9521C92.1975 8.44008 107.372 9.87205 104.051 14.5089Z" fill="#FBFBFA"/>
<path d="M104.052 14.5086C107.372 9.87178 92.1976 8.43981 101.428 14.9859C95.5844 14.9859 98.0454 7.51926 91.9358 14.5086C91.2717 15.2246 91.0061 14.4404 90.7405 16.2474C90.7073 16.5543 89.8401 17.2703 89.8069 17.7476C86.3204 19.4523 86.9845 24.6347 89.8401 27.5668C93.2269 31.0785 98.9713 31.5558 103.387 29.817C106.442 28.5896 107.538 25.7939 109.231 23.4414C109.597 22.8277 110.062 22.214 110.626 21.7025C110.294 24.396 109.065 27.3963 105.38 30.2602C99.2369 31.8286 95.8501 31.4195 90.9358 30.7035C84.0625 25.7257 84.0957 19.3388 84.3614 11.3266C90.0061 3.68943 101.96 2.97344 108.866 8.1217C108.202 8.01942 112.718 15.8724 112.054 15.7701C115.308 18.3613 112.319 19.2818 110.194 19.9296C109.829 16.3838 109.331 18.259 109.298 18.1226C108.7 16.077 108.8 12.4289 108.003 13.3835C107.936 13.4858 107.87 14.5768 107.538 15.4292C105.147 17.0998 106.575 15.4292 104.052 14.5086Z" fill="#1E1E22"/>
<path d="M110.194 19.8951C109.829 16.3493 109.364 18.2245 109.331 18.0881C108.534 20.6111 108.401 20.0996 107.571 19.0427C107.571 24.2251 103.454 28.4187 98.4069 28.4187C93.3599 28.4187 89.2425 24.2251 89.2425 19.0086C89.2425 18.5313 89.3089 18.054 89.3753 17.5767C86.1877 19.3837 87.0178 24.6683 89.807 27.5322C93.227 31.044 98.9714 31.5554 103.388 29.7825C107.239 28.2482 108.269 26.6458 110.626 21.7021C110.659 21.6339 110.327 21.293 110.194 19.8951Z" fill="#776959"/>
<path d="M121.65 12.2239C119.193 14.7469 121.816 13.9286 123.875 13.7581C120.588 17.5085 125.369 14.5764 126.398 15.9061C126.863 16.5198 117.466 24.9411 116.736 25.3162C117.732 19.2814 113.548 12.6671 108.866 9.1213C101.96 3.93895 90.0063 4.65494 84.3616 12.258C81.2736 16.3834 79.3809 21.4635 79.9786 26.6458C77.4883 16.0766 84.6604 7.21202 94.0572 2.57518C99.8348 -0.25466 109.63 0.0180954 109.962 0.120379C110.161 0.188567 109.663 2.88203 110.394 3.25706C111.224 3.6662 113.515 1.48416 114.345 1.89329C115.341 2.4388 109.564 6.59832 118.927 4.82541C110.195 13.8604 127.162 2.33652 118.496 10.2123C118.961 12.8376 125.967 7.72343 121.65 12.1557V12.2239Z" fill="#0B0B0E"/>
<path d="M9.67891 25.2534C12.8001 26.924 14.9916 28.2196 17.9136 29.2425H17.9468C18.8765 29.5834 19.9058 29.9244 21.0348 30.1971C27.1776 31.7655 30.5645 31.3563 35.4787 30.6403C37.7366 30.2653 45.4732 28.4924 46.4361 26.5831C47.0006 21.7076 45.3404 16.9685 42.5512 12.9794C42.3852 12.7408 42.2192 12.5021 42.0532 12.2634C42.0532 13.4568 39.8285 14.8205 36.6741 16.1843C30.8633 18.6732 21.7985 21.2985 17.1831 23.3782C16.9175 23.4805 16.685 23.6169 16.4526 23.7192C16.1206 22.9691 15.8881 22.2872 15.7885 21.6394C15.7885 21.5712 16.0873 21.2303 16.2202 19.8665C14.0951 19.2187 15.6225 11.4452 18.8765 8.854C18.4338 8.92219 17.9911 8.99038 17.5483 9.05857C15.6889 10.4223 13.9291 12.2975 12.5677 14.4114H12.5345C10.3762 17.7186 9.08123 21.6053 9.67891 25.2534Z" fill="#FBFBFA"/>
<ellipse cx="3" cy="4.5" rx="3" ry="4.5" transform="matrix(-1 0 0 1 21.5117 12.4688)" fill="#776959"/>
<path d="M12.3358 17.0367C12.3358 21.9463 14.4941 26.3103 17.9141 29.2425H17.9473C18.877 29.5834 19.9064 29.9244 21.0353 30.1971C27.1781 31.7655 30.565 31.3563 35.4792 30.6403C40.0282 27.9128 43.083 22.8668 43.083 17.0367C43.083 15.6388 42.917 13.275 42.5517 11.9794C42.3857 11.7408 42.2197 11.5021 42.0537 11.2634C42.0537 12.4568 39.829 14.8205 36.6746 16.1843C30.8638 18.6732 21.799 21.2985 17.1836 23.3782C16.918 23.4805 16.6856 23.6169 16.4531 23.7192C16.1211 22.9691 16.0879 21.2303 16.2207 19.8665C14.0956 19.2187 15.623 11.4452 18.877 8.854C18.4343 8.92219 17.9916 8.99038 17.5489 9.05857C15.6894 10.4223 13.9296 12.2975 12.5682 14.4114H12.535C12.4022 15.2978 12.3358 16.1502 12.3358 17.0367Z" fill="#1E1E22"/>
<path d="M28.008 28.3904C22.9466 28.3904 18.8436 24.1774 18.8436 18.9804C18.8436 13.7833 22.9466 9.57031 28.008 9.57031C33.0693 9.57031 37.1724 13.7833 37.1724 18.9804C37.1724 24.1774 33.0693 28.3904 28.008 28.3904Z" fill="#0B0B0E"/>
<path d="M22.3636 14.4464C23.0609 15.4351 24.8539 14.8896 24.9868 14.8896C34.2176 8.37758 19.0432 9.80955 22.3636 14.4464Z" fill="#FBFBFA"/>
<path d="M22.3635 14.4461C19.0431 9.80928 34.2175 8.37731 24.9866 14.9234C30.8306 14.9234 28.3696 7.45676 34.4792 14.4461C35.1433 15.1621 35.4089 14.3779 35.6746 16.1849C35.7078 16.4918 36.575 17.2078 36.6082 17.6851C40.0946 19.3898 39.4305 24.5722 36.575 27.5043C33.1881 31.016 27.4438 31.4933 23.0276 29.7545C19.9728 28.5271 18.877 25.7314 17.1836 23.3789C16.8184 22.7652 16.3535 22.1515 15.789 21.64C16.1211 24.3335 17.3496 27.3338 21.0353 30.1977C27.1781 31.7661 30.565 31.357 35.4792 30.641C42.3525 25.6632 42.3193 19.2763 42.0537 11.2641C36.4089 3.62693 24.4554 2.91094 17.5489 8.0592C18.213 7.95692 13.6972 15.8099 14.3612 15.7076C11.1072 18.2988 14.0956 19.2193 16.2207 19.8671C16.5859 16.3213 17.084 18.1965 17.1172 18.0601C17.7149 16.0145 17.6153 12.3664 18.4122 13.321C18.4786 13.4233 18.545 14.5143 18.877 15.3667C21.2678 17.0373 19.84 15.3667 22.3635 14.4461Z" fill="#1E1E22"/>
<path d="M16.2206 19.8326C16.5858 16.2868 17.0507 18.162 17.0839 18.0256C17.8808 20.5486 18.0136 20.0371 18.8437 18.9802C18.8437 24.1626 22.9611 28.3562 28.0081 28.3562C33.0552 28.3562 37.1725 24.1626 37.1725 18.9461C37.1725 18.4688 37.1061 17.9915 37.0397 17.5142C40.2273 19.3212 39.3972 24.6058 36.608 27.4697C33.188 30.9815 27.4436 31.4929 23.0275 29.72C19.1758 28.1857 18.1464 26.5833 15.7889 21.6396C15.7557 21.5714 16.0877 21.2305 16.2206 19.8326Z" fill="#776959"/>
<path d="M4.76499 12.1614C7.22211 14.6844 4.59896 13.8661 2.54029 13.6956C5.82753 17.446 1.0461 14.5139 0.0167694 15.8436C-0.448091 16.4573 8.94874 24.8786 9.67923 25.2537C8.6831 19.2189 12.8668 12.6046 17.5487 9.0588C24.4552 3.87645 36.4087 4.59244 42.0535 12.1955C45.1415 16.3209 47.0341 21.401 46.4364 26.5833C48.9268 16.0141 41.7546 7.14952 32.3578 2.51268C26.5802 -0.31716 16.785 -0.0444046 16.4529 0.0578786C16.2537 0.126067 16.7518 2.81953 16.0213 3.19456C15.1912 3.6037 12.9 1.42166 12.0699 1.83079C11.0738 2.3763 16.8514 6.53582 7.48775 4.76291C16.2205 13.7979 -0.746939 2.27402 7.9194 10.1498C7.45453 12.7751 0.448427 7.66093 4.76499 12.0932V12.1614Z" fill="#0B0B0E"/>
</svg>
