<svg width="128" height="29" viewBox="0 0 128 29" fill="none" xmlns="http://www.w3.org/2000/svg">
<mask id="mask0_100_5318" style="mask-type:luminance" maskUnits="userSpaceOnUse" x="78" y="0" width="50" height="29">
<path d="M127.807 0.0512695H78.0049V28.6602H127.807V0.0512695Z" fill="white"/>
</mask>
<g mask="url(#mask0_100_5318)">
<path d="M103.829 5.87504C103.105 7.05005 101.99 7.78231 104 7.0756C104.468 6.90531 105.575 6.41998 108.01 2.92049C108.333 3.45691 107.754 5.41526 106.818 6.80313C106.145 7.80785 104.97 8.41238 106.775 8.14843C109.21 7.7823 112.514 4.06996 112.752 3.52503C112.608 3.99333 111.952 6.64987 109.934 8.21655C108.572 9.27235 106.75 9.8258 109.977 9.34898C112.906 8.91474 115.171 6.22414 117.035 3.48245C116.839 8.73594 111.944 10.3282 111.935 10.3792C111.935 10.4048 117.708 10.3537 120.535 4.78518C119.913 6.00276 120.032 10.0216 114.064 12.4568C117.316 12.8059 121.974 10.6432 123.864 7.93557C122.944 11.6309 119.607 14.1767 115.826 13.9724C117.674 14.0746 121.548 14.2363 125.354 10.3111C124.188 12.5419 121.029 15.0623 118.517 15.5391C120.458 15.8371 122.774 15.1644 124.332 13.9554C125.184 13.2912 126.776 11.3584 124.962 13.9128C123.872 15.4454 122.672 16.1862 120.909 16.7226C123.515 16.8929 126.103 15.6498 127.806 13.7084C126.086 16.9099 122.927 18.3233 119.377 17.7614C119.079 17.7103 118.33 17.4719 118.312 17.523C118.585 17.9146 114.387 28.6174 99.7763 28.6174C93.3052 28.643 87.0215 24.7518 82.083 24.5304C80.7207 24.4623 77.996 25.0243 78.0301 23.5002C78.0471 22.9808 79.7671 19.7282 80.1502 19.0726C83.2155 14.032 89.4311 9.44264 95.0507 7.85042C97.2475 7.22034 100.347 6.7265 102.331 5.5004C104.315 4.27431 104.366 0.544932 104.221 0C104.774 0.825912 105.268 3.52503 103.855 5.82396L103.829 5.87504Z" fill="#161116"/>
<path d="M89.9503 12.9846C87.1149 20.0091 93.0581 27.3061 100.415 26.3269C105.293 25.6713 108.929 20.9032 108.606 16.0073L110.666 17.0375C110.615 20.6392 108.282 23.8662 105.064 25.3052C104.076 25.7394 102.569 25.9863 102.177 26.4376C100.304 26.5909 98.0731 26.6845 96.1999 26.4376C93.5434 26.0885 88.1452 24.1813 85.1055 23.6959C84.0582 21.9079 83.4707 20.8861 82.9854 18.8086C84.7734 16.3223 87.3107 14.4576 89.9673 12.9846H89.9503Z" fill="#FCFCFC"/>
<path d="M82.9854 18.8087C83.4793 20.8948 84.0583 21.9165 85.1056 23.696C85.2077 23.8748 85.378 24.0792 85.378 24.3006C80.2778 23.083 78.5408 24.4027 80.3289 20.6393C80.9079 19.4217 81.87 18.1531 82.7215 17.1228C82.7215 17.7018 82.8492 18.2467 82.994 18.7917L82.9769 18.8087H82.9854Z" fill="#A8876A"/>
<path d="M89.9507 12.9847C87.2942 14.4577 84.7738 16.3309 82.9688 18.8086C82.841 18.2637 82.6963 17.7103 82.6963 17.1398C84.9526 14.4066 88.2904 12.0055 91.5259 10.6091C90.981 11.1285 90.2061 12.3035 89.9337 12.9847H89.9507Z" fill="#BCBCBA"/>
<path d="M96.1916 26.4548L95.9192 26.9912C92.2835 26.5485 88.9032 25.1521 85.3696 24.3091C85.3696 24.0707 85.2164 23.8919 85.0972 23.7046C88.1369 24.1899 93.5351 26.0972 96.1916 26.4463V26.4548Z" fill="#BCBCBA"/>
<path d="M115.315 16.5353C115.247 18.2042 114.14 21.2609 113.025 22.4274C111.475 24.0622 107.405 25.5863 105.217 26.0461C104.255 26.2419 103.148 26.3611 102.16 26.4548C102.552 25.995 104.067 25.7481 105.047 25.3223C108.274 23.8834 110.598 20.6478 110.649 17.0547L108.589 16.0244C108.469 14.313 107.72 12.3802 106.596 11.103C109.874 12.1844 112.71 14.2619 115.298 16.5609L115.315 16.5438V16.5353Z" fill="#BCBCBA"/>
<path d="M104.638 26.6504C104.706 25.9097 104.843 27.0932 105.234 26.0459C107.422 25.5861 111.484 24.062 113.042 22.4272C114.157 21.2522 115.256 18.1955 115.332 16.5352C115.554 16.731 116.78 17.642 116.797 17.8379C114.762 23.0232 109.849 25.6798 104.638 26.6419V26.6504Z" fill="#7B736F"/>
<path d="M105.226 26.0461C104.834 27.0934 104.698 25.9014 104.63 26.6507C101.743 27.1871 98.8397 27.3404 95.9277 26.9913L96.2002 26.4548C98.0649 26.7018 100.287 26.6081 102.177 26.4548C103.165 26.3782 104.272 26.259 105.234 26.0461H105.217H105.226Z" fill="#968F8A"/>
<path d="M91.4831 13.6488C92.3857 14.3641 92.9051 15.1389 94.8719 15.4539C94.8549 15.522 94.8208 15.5306 94.8038 15.5816C93.8161 15.4369 91.9855 15.1219 91.1511 14.645C89.8994 13.9298 90.2485 12.6612 91.4916 13.6403L91.4746 13.6574L91.4831 13.6488Z" fill="#FCFCFC"/>
<path d="M94.9997 15.0623C95.0253 14.3471 95.3914 13.8106 95.9278 13.3934C96.047 13.2998 96.2003 13.2657 96.328 13.1976C98.2693 13.0018 98.2863 15.7945 96.3706 15.5476C96.2514 17.1569 94.9486 16.5438 95.0082 15.0793L94.9912 15.0623H94.9997Z" fill="#FCFCFC"/>
<path d="M95.5361 13.1124C95.5361 13.1124 95.6298 13.2657 95.9363 13.3849C95.3914 13.8021 95.0423 14.3556 95.0082 15.0538C94.8379 15.1474 94.906 15.3262 94.8805 15.4625C92.9221 15.1474 92.4113 14.3811 91.4917 13.6574C91.8323 12.9677 92.2921 12.4398 92.8285 11.9204C93.6714 12.4143 94.7187 12.6271 95.5446 13.121V13.1039L95.5361 13.1124Z" fill="#D0B695"/>
<path d="M95.536 13.1125C94.7101 12.6016 93.6628 12.3972 92.8198 11.9119C93.2456 11.4947 93.3733 11.3755 93.8841 11.0349C94.1311 11.2478 95.7744 12.9422 95.7488 13.0699C95.7318 13.121 95.6041 13.0954 95.553 13.1125H95.536Z" fill="#908073"/>
<path d="M102.705 15.1899C102.773 15.3688 102.884 15.6072 102.901 15.6582V15.786C102.952 16.0584 102.969 16.0329 102.969 16.0584C102.986 16.2372 102.969 16.4756 102.969 16.663V16.7907C102.969 16.9354 102.901 16.9354 102.901 16.9865C102.756 18.0423 102.279 18.9874 101.437 19.6686C101.411 19.6856 101.334 19.7197 101.309 19.7367C99.7166 20.9117 97.6305 20.8096 96.132 19.5409C96.1064 19.5153 95.9872 19.3961 95.9361 19.3451C95.8595 19.2684 95.5615 18.9704 95.5359 18.9364C95.5359 18.9364 95.5359 18.9108 95.4678 18.8086C95.4167 18.715 95.0761 18.17 95.0676 18.1445V18.0168C95.0165 17.8635 94.8122 17.3782 94.7952 17.3526V17.2249C94.7526 16.9525 94.7271 16.7651 94.7271 16.4927C94.7271 16.1947 94.7441 15.9137 94.7952 15.6157C94.7952 15.5476 94.8463 15.5476 94.8633 15.488C94.8888 15.3602 94.8377 15.1729 94.991 15.0793C94.9229 16.5438 96.2341 17.1568 96.3533 15.5476C98.2691 15.8115 98.2691 13.0102 96.3108 13.1975C98.6437 11.8267 101.7 12.5589 102.68 15.207L102.705 15.1899Z" fill="#161116"/>
<path d="M106.631 15.19C105.387 15.4029 104.246 16.0244 102.978 16.067C102.978 16.05 102.961 16.067 102.91 15.7946C104.102 15.471 105.226 14.7728 106.367 14.2534C106.52 14.6877 106.537 14.7217 106.639 15.19H106.622H106.631Z" fill="#71523E"/>
<path d="M106.094 13.6489C106.341 14.1343 106.29 14.1598 106.29 14.1853L102.901 15.6584C102.901 15.6584 102.773 15.3689 102.705 15.1901C102.85 15.1901 103.046 15.1134 103.173 15.0623C104.17 14.7643 105.183 13.9384 106.102 13.6489H106.094Z" fill="#543E35"/>
<path d="M106.29 14.1853C106.29 14.1853 106.332 14.1598 106.358 14.2534C105.217 14.7728 104.093 15.471 102.901 15.7946V15.6668L106.29 14.1938V14.1853Z" fill="#A8876A"/>
<path d="M105.234 12.3888C105.089 12.4313 104.561 12.823 104.57 12.8826C104.612 13.2487 105.166 12.4399 105.37 12.5846C105.566 12.8315 105.651 12.8486 105.966 13.3935C105.515 13.8277 103.778 14.7899 103.182 15.0623C103.054 15.1305 102.858 15.1901 102.714 15.1901C101.726 12.542 98.6607 11.8098 96.3447 13.1806C96.217 13.2573 96.0637 13.2998 95.9445 13.3765C95.638 13.2743 95.5699 13.1125 95.5443 13.104C95.5954 13.104 95.7231 13.1295 95.7402 13.0614C95.7827 12.9337 94.1224 11.2308 93.8755 11.0264C97.4005 8.71048 102.39 9.17027 105.225 12.3717V12.3888H105.234Z" fill="#543E35"/>
<path d="M106.094 13.6487C105.174 13.9382 104.161 14.7556 103.165 15.0622C103.761 14.7727 105.507 13.8105 105.949 13.3933C106 13.487 106.043 13.5721 106.077 13.6658L106.094 13.6487Z" fill="#8D674E"/>
<path d="M105.362 12.5845C105.158 12.4398 104.613 13.2486 104.562 12.8825C104.562 12.8059 105.089 12.4227 105.226 12.3887C105.396 12.5675 105.353 12.5845 105.353 12.5845H105.37H105.362Z" fill="#71523E"/>
<path d="M95.0675 18.1445C95.0675 18.1445 95.4081 18.732 95.4677 18.8087C94.48 19.5494 93.305 20.1795 92.6068 21.2523L95.5358 18.9364C95.5358 18.9364 95.8594 19.2599 95.936 19.3451C95.8934 19.5665 95.7316 19.7623 95.5954 19.9496C94.7695 20.6648 94.0968 21.5418 93.4753 22.4359C92.5813 21.5844 92.0108 20.7755 91.5425 19.6261C91.866 19.5835 91.9852 19.4302 92.0108 19.4302C92.2918 19.3281 92.3599 19.2855 92.6068 19.1578C92.6494 19.1407 92.8367 19.1322 92.9474 19.0896C93.1517 19.2685 92.0704 19.6516 92.5813 19.7538C92.726 19.7793 95.0505 18.5021 94.9398 18.1445H95.0675Z" fill="#E3AF5F"/>
<path d="M94.8123 15.5987C94.7612 15.8882 94.7442 16.1777 94.7442 16.4757C94.2503 16.5438 93.7735 16.5183 93.2797 16.5438C92.7007 16.3906 91.8067 16.5183 91.2192 16.6715C91.2021 16.6715 91.2617 16.7737 90.8786 16.7397C90.8616 16.05 90.9467 15.3262 91.151 14.6621C91.977 15.1474 93.8331 15.4454 94.8038 15.5987H94.8123Z" fill="#D0B695"/>
<path d="M106.63 15.1899C106.732 15.7263 106.835 16.1861 106.826 16.731L102.978 16.6629C102.978 16.4841 102.995 16.2287 102.978 16.0584C104.246 16.0158 105.387 15.4028 106.63 15.1814V15.1899Z" fill="#C39554"/>
<path d="M98.9931 20.9544C99.0952 21.6611 99.1463 23.7727 99.0612 24.5731C97.767 24.5986 96.6431 24.3942 95.4766 23.8408C96.1918 23.8919 97.222 24.5731 97.8692 24.3091H97.9373C97.9373 24.3091 97.767 24.556 98.661 24.4113L98.4652 20.6649C98.6866 21.5419 98.4141 20.3413 98.959 20.6223C98.976 20.6223 98.976 20.8352 99.0016 20.9629V20.9459L98.9931 20.9544Z" fill="#E3AF5F"/>
<path d="M103.506 23.1001C103.284 23.2533 103.063 23.3725 102.842 23.5088C102.314 22.6062 101.846 21.6271 101.25 20.7671L103.506 23.1171V23.1001Z" fill="#E3AF5F"/>
<path d="M94.744 21.1671C94.3779 21.6269 93.9522 22.0781 93.552 22.5124C93.5265 22.4868 93.5009 22.4613 93.4839 22.4443C94.1054 21.5587 94.7951 20.6817 95.604 19.958C95.3571 20.3071 94.9995 20.835 94.7355 21.1586L94.744 21.1671Z" fill="#E4DBD1"/>
<path d="M106.826 16.7312V16.8589H106.358C105.234 16.7823 104.102 16.7823 102.969 16.7908V16.6631L106.818 16.7312H106.835H106.826Z" fill="#D6C0AC"/>
<path d="M106.358 16.8674C105.762 17.4719 103.872 17.1824 102.901 16.9951C102.901 16.944 102.952 16.927 102.969 16.7992C104.11 16.7992 105.225 16.7822 106.358 16.8674Z" fill="#C39554"/>
<path d="M96.1322 19.5579C96.1067 20.2731 94.8125 21.5673 94.7358 21.1671C94.9913 20.8266 95.3574 20.3157 95.6043 19.9666C95.732 19.7878 95.8853 19.592 95.9449 19.3621C96.013 19.4302 96.1237 19.5409 96.1407 19.5579H96.1322Z" fill="#E2BA82"/>
<path d="M106.826 16.8673C106.809 17.4123 106.699 18.0679 106.554 18.6043C103.421 17.6677 103.046 17.9998 106.486 18.6724C106.281 19.4813 106.162 19.7963 105.762 20.5541C105.311 20.486 102.45 18.7661 102.373 18.9704C103.438 19.5835 104.655 19.9666 105.558 20.8096C105.055 21.6355 104.689 22.0612 103.965 22.6913C103.421 23.1 101.002 19.3366 100.909 20.3413C100.892 20.5371 102.603 23.0234 102.697 23.5513C102.501 23.6534 102.356 23.7301 102.169 23.8237C101.913 23.5598 100.67 20.4264 100.406 20.5456C100.355 20.5882 100.475 20.6989 100.509 20.8181C99.5379 19.9837 101.113 23.381 101.309 23.7301C101.428 23.9515 101.479 24.1473 101.65 23.9259C101.726 23.8237 101.096 23.0148 101.581 22.9552C101.76 23.3384 102.075 23.7812 101.922 23.96C101.019 24.3091 100.253 24.5219 99.2655 24.5645C99.1973 24.1728 99.2229 20.75 99.0356 20.75C98.9845 20.75 99.01 20.9032 98.993 20.9458C98.976 20.8181 98.976 20.6223 98.9504 20.6052C98.4055 20.3072 98.6694 21.5163 98.4566 20.6478L98.6524 24.3942C97.7584 24.539 97.9627 24.292 97.9287 24.292L98.0308 22.4103L97.8606 24.292C97.222 24.556 96.1747 23.8748 95.468 23.8237C94.7698 23.5002 94.1056 22.9978 93.5352 22.4784C93.9353 22.0612 94.3781 21.6014 94.7272 21.1331C94.8038 21.5418 96.098 20.2476 96.1236 19.5239C97.6221 20.7926 99.7082 20.8947 101.3 19.7197L104.059 22.4614C103.455 21.363 102.263 20.6052 101.428 19.6516C102.271 18.9704 102.739 18.0168 102.893 16.9695C103.863 17.1483 105.737 17.4293 106.35 16.8418H106.818V16.8588L106.826 16.8673Z" fill="#E3AF5F"/>
<path d="M103.957 22.7083C103.804 22.836 103.659 22.9808 103.489 23.117L101.232 20.767C101.139 20.6393 101.036 20.469 100.892 20.3583C100.985 19.3365 103.403 23.117 103.948 22.7083H103.957Z" fill="#E3AF5F"/>
<path d="M102.178 23.8407C102.084 23.8833 102.024 23.9343 101.905 23.9684C102.058 23.7896 101.76 23.3383 101.564 22.9637C101.241 22.3081 100.713 21.4907 100.5 20.818C100.458 20.6988 100.347 20.5796 100.398 20.5456C100.653 20.4263 101.897 23.5597 102.16 23.8237L102.178 23.8407Z" fill="#F6EAD5"/>
<path d="M99.2481 24.5731H99.0523C99.146 23.7727 99.0778 21.6611 98.9842 20.9544C98.9842 20.9033 98.9672 20.7585 99.0268 20.7585C99.2226 20.7585 99.197 24.1814 99.2567 24.5731H99.2396H99.2481Z" fill="#E4DBD1"/>
<path d="M105.762 20.5457C105.609 20.8352 105.566 20.7926 105.566 20.8182C104.647 19.9667 103.446 19.575 102.382 18.979C102.458 18.7661 105.311 20.4776 105.771 20.5627L105.754 20.5457H105.762Z" fill="#E4DBD1"/>
<path d="M101.241 20.7586C101.837 21.6186 102.305 22.5977 102.833 23.5003C102.765 23.5428 102.731 23.5514 102.705 23.5684C102.612 23.032 100.892 20.5372 100.917 20.3584C101.045 20.4606 101.147 20.6223 101.258 20.7671H101.241V20.7586Z" fill="#F6EAD5"/>
<path d="M106.554 18.6128C106.528 18.7065 106.486 18.6809 106.486 18.6809C103.046 17.9997 103.429 17.6762 106.554 18.6128Z" fill="#F6EAD5"/>
<path d="M100.517 20.8266C100.738 21.4907 101.258 22.3166 101.581 22.9722C101.087 23.0233 101.726 23.8492 101.649 23.9429C101.479 24.1643 101.445 23.9684 101.309 23.747C101.113 23.3979 99.5377 20.0006 100.508 20.8351H100.525L100.517 20.8266Z" fill="#E3AF5F"/>
<path d="M101.309 19.7537C101.309 19.7537 101.428 19.7026 101.437 19.6855C102.263 20.6392 103.455 21.397 104.068 22.4954L101.309 19.7537Z" fill="#F6EAD5"/>
<path d="M96.6342 20.2903L95.042 23.4407C95.4081 22.3167 96.0127 21.2865 96.6342 20.2903Z" fill="#E4DBD1"/>
<path d="M97.486 20.418L97.5882 20.4605L96.2939 23.9771C96.311 23.5428 97.3157 20.4861 97.486 20.4265V20.418Z" fill="#E4DBD1"/>
<path d="M99.751 20.6309C99.8276 20.9033 100.798 24.1559 100.619 24.1814L99.751 20.6309Z" fill="#E4DBD1"/>
<path d="M103.003 18.6128C103.25 18.6809 106.162 19.4642 106.086 19.6431L103.003 18.6128Z" fill="#E4DBD1"/>
<path d="M97.9285 24.309H97.8604L98.0306 22.4272L97.9285 24.309Z" fill="#EFD7B6"/>
<path d="M98.2265 20.9543C98.3032 20.9543 98.1755 21.925 98.1584 22.0271C98.0307 22.8105 98.0307 21.8994 98.201 21.0565V20.9884L98.2436 20.9458H98.2265V20.9543Z" fill="#F1CE9C"/>
<path d="M94.744 16.4757C94.744 16.7652 94.7696 16.9355 94.8121 17.208L91.8831 18.0424C92.1556 18.2383 92.3514 17.9232 92.7772 17.804C93.4413 17.6252 94.148 17.5401 94.7951 17.3357C94.7951 17.3783 94.9995 17.8551 95.0676 17.9998C94.1906 18.2468 93.4243 18.7406 92.6069 19.1323C92.377 19.2259 92.2322 19.3026 92.0109 19.4047C91.8831 19.4558 91.6107 19.4047 91.5426 19.6006C91.1679 18.6725 90.904 17.7359 90.8784 16.7141C91.2531 16.7567 91.1849 16.646 91.219 16.646C91.9087 16.6035 92.5898 16.5439 93.2795 16.5183C93.7734 16.4928 94.2502 16.5183 94.744 16.4502V16.4672V16.4757Z" fill="#E3AF5F"/>
<path d="M94.8124 17.208V17.3357C94.1482 17.5486 93.45 17.6252 92.7944 17.804C92.3517 17.9232 92.1729 18.2383 91.9004 18.0424L94.8294 17.208H94.8124Z" fill="#EFD7B6"/>
<path d="M95.0676 18.1446H94.9399C94.4461 18.2893 93.501 18.8513 92.9475 19.0812C92.8453 19.1237 92.6665 19.1323 92.6069 19.1493C93.4243 18.7576 94.1821 18.2638 95.0676 18.0168V18.1446Z" fill="#F6EAD5"/>
<path d="M93.2798 16.5354C92.5901 16.5779 91.9089 16.629 91.2192 16.6631C91.7982 16.5098 92.6923 16.3736 93.2798 16.5354Z" fill="#E4DBD1"/>
<path d="M92.6072 19.1492C92.3603 19.2684 92.3007 19.3195 92.0112 19.4216C92.2326 19.3195 92.3859 19.2513 92.6072 19.1492Z" fill="#F6EAD5"/>
<path d="M92.0108 19.4131C92.0108 19.4131 91.866 19.5663 91.5425 19.6089C91.6106 19.4131 91.8831 19.4557 92.0108 19.4131Z" fill="#F6EAD5"/>
<path d="M91.517 18.1446C91.9086 18.0169 91.3893 18.4341 91.3467 18.2468C91.3467 18.2468 91.4999 18.1532 91.517 18.1446Z" fill="#E2BA82"/>
<path d="M92.9474 19.0897C93.5008 18.8513 94.4459 18.3063 94.9398 18.1531C95.059 18.5022 92.726 19.7879 92.5813 19.7623C92.0619 19.6602 93.1517 19.277 92.9474 19.0982V19.0897Z" fill="#E3AF5F"/>
<path d="M95.5359 18.9449L92.6069 21.2608C93.3051 20.1795 94.4716 19.5664 95.4678 18.8171C95.5359 18.9193 95.5359 18.9449 95.5359 18.9449Z" fill="#F6EAD5"/>
</g>
<mask id="mask1_100_5318" style="mask-type:luminance" maskUnits="userSpaceOnUse" x="0" y="0" width="50" height="29">
<path d="M0.195423 0.0512695H49.9971V28.6602H0.195423V0.0512695Z" fill="white"/>
</mask>
<g mask="url(#mask1_100_5318)">
<path d="M24.1723 5.87504C24.896 7.05005 26.0114 7.78231 24.002 7.0756C23.5337 6.90531 22.4268 6.41998 19.9916 2.92049C19.668 3.45691 20.247 5.41526 21.1836 6.80313C21.8563 7.80785 23.0313 8.41238 21.2262 8.14843C18.7911 7.7823 15.4874 4.06996 15.249 3.52503C15.3937 3.99333 16.0494 6.64987 18.0673 8.21655C19.4296 9.27235 21.2518 9.8258 18.0247 9.34898C15.0957 8.91474 12.8309 6.22414 10.9662 3.48245C11.162 8.73594 16.0579 10.3282 16.0664 10.3792C16.0664 10.4048 10.2935 10.3537 7.46669 4.78518C8.08825 6.00276 7.96905 10.0216 13.9378 12.4568C10.6852 12.8059 6.02773 10.6432 4.1375 7.93557C5.05707 11.6309 8.39478 14.1767 12.1752 13.9724C10.3276 14.0746 6.45346 14.2363 2.64745 10.3111C3.81394 12.5419 6.97284 15.0623 9.48464 15.5391C7.54332 15.8371 5.22736 15.1644 3.6692 13.9554C2.81774 13.2912 1.22552 11.3584 3.03912 13.9128C4.12898 15.4454 5.32954 16.1862 7.09205 16.7226C4.48659 16.8929 1.89817 15.6498 0.195256 13.7084C1.9152 16.9099 5.0741 18.3233 8.62467 17.7614C8.92268 17.7103 9.67196 17.4719 9.68899 17.523C9.41652 17.9146 13.6142 28.6174 28.2252 28.6174C34.6962 28.643 40.98 24.7518 45.9184 24.5304C47.2808 24.4623 50.0054 25.0243 49.9714 23.5002C49.9543 22.9808 48.2344 19.7282 47.8512 19.0726C44.786 14.032 38.5704 9.44264 32.9508 7.85042C30.754 7.22034 27.6547 6.7265 25.6708 5.5004C23.6869 4.27431 23.6358 0.544932 23.7806 0C23.2271 0.825912 22.7333 3.52503 24.1467 5.82396L24.1723 5.87504Z" fill="#161116"/>
<path d="M38.0512 12.9846C40.8866 20.0091 34.9434 27.3061 27.5868 26.3269C22.708 25.6713 19.0723 20.9032 19.3958 16.0073L17.3353 17.0375C17.3864 20.6392 19.7194 23.8662 22.9379 25.3052C23.9256 25.7394 25.4326 25.9863 25.8243 26.4376C27.6975 26.5909 29.9283 26.6845 31.8015 26.4376C34.4581 26.0885 39.8563 24.1813 42.896 23.6959C43.9433 21.9079 44.5308 20.8861 45.0161 18.8086C43.2281 16.3223 40.6907 14.4576 38.0342 12.9846H38.0512Z" fill="#FCFCFC"/>
<path d="M45.016 18.8087C44.5222 20.8948 43.9432 21.9165 42.8959 23.696C42.7937 23.8748 42.6234 24.0792 42.6234 24.3006C47.7237 23.083 49.4606 24.4027 47.6726 20.6393C47.0936 19.4217 46.1314 18.1531 45.28 17.1228C45.28 17.7018 45.1523 18.2467 45.0075 18.7917L45.0245 18.8087H45.016Z" fill="#A8876A"/>
<path d="M38.0508 12.9847C40.7073 14.4577 43.2276 16.3309 45.0327 18.8086C45.1604 18.2637 45.3052 17.7103 45.3052 17.1398C43.0488 14.4066 39.7111 12.0055 36.4756 10.6091C37.0205 11.1285 37.7953 12.3035 38.0678 12.9847H38.0508Z" fill="#BCBCBA"/>
<path d="M31.8098 26.4548L32.0823 26.9912C35.718 26.5485 39.0983 25.1521 42.6318 24.3091C42.6318 24.0707 42.7851 23.8919 42.9043 23.7046C39.8646 24.1899 34.4664 26.0972 31.8098 26.4463V26.4548Z" fill="#BCBCBA"/>
<path d="M12.6863 16.5353C12.7544 18.2042 13.8613 21.2609 14.9767 22.4274C16.5264 24.0622 20.5963 25.5863 22.7846 26.0461C23.7467 26.2419 24.8536 26.3611 25.8413 26.4548C25.4496 25.995 23.934 25.7481 22.9549 25.3223C19.7279 23.8834 17.4034 20.6478 17.3523 17.0547L19.4128 16.0244C19.532 14.313 20.2813 12.3802 21.4052 11.103C18.1271 12.1844 15.2918 14.2619 12.7033 16.5609L12.6863 16.5438V16.5353Z" fill="#BCBCBA"/>
<path d="M23.3633 26.6504C23.2952 25.9097 23.1589 27.0932 22.7673 26.0459C20.579 25.5861 16.5176 24.062 14.9594 22.4272C13.844 21.2522 12.7456 18.1955 12.669 16.5352C12.4476 16.731 11.2215 17.642 11.2045 17.8379C13.2395 23.0232 18.1524 25.6798 23.3633 26.6419V26.6504Z" fill="#7B736F"/>
<path d="M22.7758 26.0461C23.1675 27.0934 23.3037 25.9014 23.3719 26.6507C26.2583 27.1871 29.1618 27.3404 32.0737 26.9913L31.8013 26.4548C29.9366 26.7018 27.7143 26.6081 25.824 26.4548C24.8364 26.3782 23.7295 26.259 22.7673 26.0461H22.7843H22.7758Z" fill="#968F8A"/>
<path d="M36.5183 13.6488C35.6158 14.3641 35.0964 15.1389 33.1295 15.4539C33.1466 15.522 33.1806 15.5306 33.1977 15.5816C34.1854 15.4369 36.016 15.1219 36.8504 14.645C38.102 13.9298 37.7529 12.6612 36.5098 13.6403L36.5269 13.6574L36.5183 13.6488Z" fill="#FCFCFC"/>
<path d="M33.0017 15.0623C32.9762 14.3471 32.6101 13.8106 32.0737 13.3934C31.9545 13.2998 31.8012 13.2657 31.6735 13.1976C29.7321 13.0018 29.7151 15.7945 31.6309 15.5476C31.7501 17.1569 33.0528 16.5438 32.9932 15.0793L33.0103 15.0623H33.0017Z" fill="#FCFCFC"/>
<path d="M32.4654 13.1124C32.4654 13.1124 32.3717 13.2657 32.0652 13.3849C32.6101 13.8021 32.9592 14.3556 32.9933 15.0538C33.1635 15.1474 33.0954 15.3262 33.121 15.4625C35.0793 15.1474 35.5902 14.3811 36.5098 13.6574C36.1692 12.9677 35.7094 12.4398 35.173 11.9204C34.33 12.4143 33.2827 12.6271 32.4568 13.121V13.1039L32.4654 13.1124Z" fill="#D0B695"/>
<path d="M32.4655 13.1125C33.2914 12.6016 34.3387 12.3972 35.1816 11.9119C34.7559 11.4947 34.6282 11.3755 34.1173 11.0349C33.8704 11.2478 32.2271 12.9422 32.2526 13.0699C32.2697 13.121 32.3974 13.0954 32.4485 13.1125H32.4655Z" fill="#908073"/>
<path d="M25.2963 15.1899C25.2282 15.3688 25.1175 15.6072 25.1004 15.6582V15.786C25.0494 16.0584 25.0323 16.0329 25.0323 16.0584C25.0153 16.2372 25.0323 16.4756 25.0323 16.663V16.7907C25.0323 16.9354 25.1004 16.9354 25.1004 16.9865C25.2452 18.0423 25.722 18.9874 26.5649 19.6686C26.5905 19.6856 26.6671 19.7197 26.6927 19.7367C28.2849 20.9117 30.3709 20.8096 31.8695 19.5409C31.8951 19.5153 32.0143 19.3961 32.0653 19.3451C32.142 19.2684 32.44 18.9704 32.4655 18.9364C32.4655 18.9364 32.4655 18.9108 32.5336 18.8086C32.5847 18.715 32.9253 18.17 32.9338 18.1445V18.0168C32.9849 17.8635 33.1893 17.3782 33.2063 17.3526V17.2249C33.2489 16.9525 33.2744 16.7651 33.2744 16.4927C33.2744 16.1947 33.2574 15.9137 33.2063 15.6157C33.2063 15.5476 33.1552 15.5476 33.1382 15.488C33.1126 15.3602 33.1637 15.1729 33.0105 15.0793C33.0786 16.5438 31.7673 17.1568 31.6481 15.5476C29.7324 15.8115 29.7324 13.0102 31.6907 13.1975C29.3577 11.8267 26.301 12.5589 25.3218 15.207L25.2963 15.1899Z" fill="#161116"/>
<path d="M21.3709 15.19C22.6141 15.4029 23.755 16.0244 25.0237 16.067C25.0237 16.05 25.0407 16.067 25.0918 15.7946C23.8998 15.471 22.7758 14.7728 21.6349 14.2534C21.4816 14.6877 21.4646 14.7217 21.3624 15.19H21.3794H21.3709Z" fill="#71523E"/>
<path d="M21.9076 13.6489C21.6607 14.1343 21.7118 14.1598 21.7118 14.1853L25.1006 15.6584C25.1006 15.6584 25.2283 15.3689 25.2964 15.1901C25.1516 15.1901 24.9558 15.1134 24.8281 15.0623C23.8319 14.7643 22.8187 13.9384 21.8991 13.6489H21.9076Z" fill="#543E35"/>
<path d="M21.7118 14.1853C21.7118 14.1853 21.6692 14.1598 21.6437 14.2534C22.7846 14.7728 23.9085 15.471 25.1006 15.7946V15.6668L21.7118 14.1938V14.1853Z" fill="#A8876A"/>
<path d="M22.7676 12.3888C22.9123 12.4313 23.4402 12.823 23.4317 12.8826C23.3891 13.2487 22.8357 12.4399 22.6313 12.5846C22.4355 12.8315 22.3503 12.8486 22.0353 13.3935C22.4866 13.8277 24.2235 14.7899 24.8196 15.0623C24.9473 15.1305 25.1431 15.1901 25.2879 15.1901C26.2756 12.542 29.3408 11.8098 31.6568 13.1806C31.7845 13.2573 31.9377 13.2998 32.0569 13.3765C32.3635 13.2743 32.4316 13.1125 32.4571 13.104C32.406 13.104 32.2783 13.1295 32.2613 13.0614C32.2187 12.9337 33.8791 11.2308 34.126 11.0264C30.6009 8.71048 25.6114 9.17027 22.7761 12.3717V12.3888H22.7676Z" fill="#543E35"/>
<path d="M21.9074 13.6487C22.827 13.9382 23.8402 14.7556 24.8364 15.0622C24.2404 14.7727 22.4949 13.8105 22.0522 13.3933C22.0011 13.487 21.9585 13.5721 21.9244 13.6658L21.9074 13.6487Z" fill="#8D674E"/>
<path d="M22.6396 12.5845C22.8439 12.4398 23.3889 13.2486 23.4399 12.8825C23.4399 12.8059 22.912 12.4227 22.7758 12.3887C22.6055 12.5675 22.6481 12.5845 22.6481 12.5845H22.6311H22.6396Z" fill="#71523E"/>
<path d="M32.934 18.1445C32.934 18.1445 32.5934 18.732 32.5338 18.8087C33.5215 19.5494 34.6965 20.1795 35.3947 21.2523L32.4657 18.9364C32.4657 18.9364 32.1421 19.2599 32.0655 19.3451C32.108 19.5665 32.2698 19.7623 32.4061 19.9496C33.232 20.6648 33.9046 21.5418 34.5262 22.4359C35.4202 21.5844 35.9907 20.7755 36.459 19.6261C36.1354 19.5835 36.0162 19.4302 35.9907 19.4302C35.7097 19.3281 35.6416 19.2855 35.3947 19.1578C35.3521 19.1407 35.1648 19.1322 35.0541 19.0896C34.8497 19.2685 35.9311 19.6516 35.4202 19.7538C35.2755 19.7793 32.951 18.5021 33.0617 18.1445H32.934Z" fill="#E3AF5F"/>
<path d="M33.1892 15.5987C33.2402 15.8882 33.2573 16.1777 33.2573 16.4757C33.7511 16.5438 34.2279 16.5183 34.7218 16.5438C35.3008 16.3906 36.1948 16.5183 36.7823 16.6715C36.7993 16.6715 36.7397 16.7737 37.1229 16.7397C37.1399 16.05 37.0548 15.3262 36.8504 14.6621C36.0245 15.1474 34.1683 15.4454 33.1977 15.5987H33.1892Z" fill="#D0B695"/>
<path d="M21.3712 15.1899C21.269 15.7263 21.1668 16.1861 21.1753 16.731L25.0239 16.6629C25.0239 16.4841 25.0069 16.2287 25.0239 16.0584C23.7553 16.0158 22.6143 15.4028 21.3712 15.1814V15.1899Z" fill="#C39554"/>
<path d="M29.0084 20.9544C28.9062 21.6611 28.8551 23.7727 28.9403 24.5731C30.2345 24.5986 31.3584 24.3942 32.5249 23.8408C31.8097 23.8919 30.7794 24.5731 30.1323 24.3091H30.0642C30.0642 24.3091 30.2345 24.556 29.3405 24.4113L29.5363 20.6649C29.3149 21.5419 29.5874 20.3413 29.0424 20.6223C29.0254 20.6223 29.0254 20.8352 28.9999 20.9629V20.9459L29.0084 20.9544Z" fill="#E3AF5F"/>
<path d="M24.4956 23.1001C24.717 23.2533 24.9384 23.3725 25.1597 23.5088C25.6876 22.6062 26.1559 21.6271 26.752 20.7671L24.4956 23.1171V23.1001Z" fill="#E3AF5F"/>
<path d="M33.2574 21.1671C33.6236 21.6269 34.0493 22.0781 34.4495 22.5124C34.475 22.4868 34.5005 22.4613 34.5176 22.4443C33.896 21.5587 33.2063 20.6817 32.3975 19.958C32.6444 20.3071 33.002 20.835 33.2659 21.1586L33.2574 21.1671Z" fill="#E4DBD1"/>
<path d="M21.1751 16.7312V16.8589H21.6434C22.7674 16.7823 23.8998 16.7823 25.0322 16.7908V16.6631L21.1836 16.7312H21.1666H21.1751Z" fill="#D6C0AC"/>
<path d="M21.6437 16.8674C22.2397 17.4719 24.1299 17.1824 25.1006 16.9951C25.1006 16.944 25.0495 16.927 25.0325 16.7992C23.8915 16.7992 22.7761 16.7822 21.6437 16.8674Z" fill="#C39554"/>
<path d="M31.8692 19.5579C31.8948 20.2731 33.189 21.5673 33.2656 21.1671C33.0102 20.8266 32.6441 20.3157 32.3971 19.9666C32.2694 19.7878 32.1162 19.592 32.0566 19.3621C31.9884 19.4302 31.8778 19.5409 31.8607 19.5579H31.8692Z" fill="#E2BA82"/>
<path d="M21.1751 16.8673C21.1921 17.4123 21.3028 18.0679 21.4476 18.6043C24.5809 17.6677 24.9555 17.9998 21.5157 18.6724C21.72 19.4813 21.8392 19.7963 22.2394 20.5541C22.6907 20.486 25.5516 18.7661 25.6282 18.9704C24.5639 19.5835 23.3463 19.9666 22.4438 20.8096C22.9461 21.6355 23.3122 22.0612 24.036 22.6913C24.5809 23.1 26.999 19.3366 27.0927 20.3413C27.1097 20.5371 25.3983 23.0234 25.3046 23.5513C25.5005 23.6534 25.6452 23.7301 25.8325 23.8237C26.088 23.5598 27.3311 20.4264 27.5951 20.5456C27.6461 20.5882 27.5269 20.6989 27.4929 20.8181C28.4635 19.9837 26.8884 23.381 26.6925 23.7301C26.5733 23.9515 26.5222 24.1473 26.3519 23.9259C26.2753 23.8237 26.9054 23.0148 26.4201 22.9552C26.2412 23.3384 25.9262 23.7812 26.0795 23.96C26.982 24.3091 27.7483 24.5219 28.736 24.5645C28.8041 24.1728 28.7786 20.75 28.9659 20.75C29.017 20.75 28.9914 20.9032 29.0085 20.9458C29.0255 20.8181 29.0255 20.6223 29.0511 20.6052C29.596 20.3072 29.332 21.5163 29.5449 20.6478L29.3491 24.3942C30.2431 24.539 30.0387 24.292 30.0728 24.292L29.9706 22.4103L30.1409 24.292C30.7795 24.556 31.8268 23.8748 32.5335 23.8237C33.2317 23.5002 33.8958 22.9978 34.4663 22.4784C34.0661 22.0612 33.6234 21.6014 33.2743 21.1331C33.1976 21.5418 31.9034 20.2476 31.8779 19.5239C30.3793 20.7926 28.2933 20.8947 26.701 19.7197L23.9423 22.4614C24.5468 21.363 25.7389 20.6052 26.5733 19.6516C25.7304 18.9704 25.2621 18.0168 25.1088 16.9695C24.1382 17.1483 22.2649 17.4293 21.6519 16.8418H21.1836V16.8588L21.1751 16.8673Z" fill="#E3AF5F"/>
<path d="M24.0446 22.7083C24.1979 22.836 24.3426 22.9808 24.5129 23.117L26.7693 20.767C26.8629 20.6393 26.9651 20.469 27.1099 20.3583C27.0162 19.3365 24.5981 23.117 24.0531 22.7083H24.0446Z" fill="#E3AF5F"/>
<path d="M25.824 23.8407C25.9176 23.8833 25.9772 23.9343 26.0964 23.9684C25.9432 23.7896 26.2412 23.3383 26.437 22.9637C26.7606 22.3081 27.2885 21.4907 27.5013 20.818C27.5439 20.6988 27.6546 20.5796 27.6035 20.5456C27.3481 20.4263 26.1049 23.5597 25.841 23.8237L25.824 23.8407Z" fill="#F6EAD5"/>
<path d="M28.7533 24.5731H28.9492C28.8555 23.7727 28.9236 21.6611 29.0173 20.9544C29.0173 20.9033 29.0343 20.7585 28.9747 20.7585C28.7789 20.7585 28.8044 24.1814 28.7448 24.5731H28.7618H28.7533Z" fill="#E4DBD1"/>
<path d="M22.2394 20.5457C22.3926 20.8352 22.4352 20.7926 22.4352 20.8182C23.3548 19.9667 24.5553 19.575 25.6196 18.979C25.543 18.7661 22.6906 20.4776 22.2308 20.5627L22.2479 20.5457H22.2394Z" fill="#E4DBD1"/>
<path d="M26.7606 20.7586C26.1646 21.6186 25.6963 22.5977 25.1684 23.5003C25.2365 23.5428 25.2706 23.5514 25.2961 23.5684C25.3898 23.032 27.1097 20.5372 27.0842 20.3584C26.9565 20.4606 26.8543 20.6223 26.7436 20.7671H26.7606V20.7586Z" fill="#F6EAD5"/>
<path d="M21.4476 18.6128C21.4731 18.7065 21.5157 18.6809 21.5157 18.6809C24.9556 17.9997 24.5724 17.6762 21.4476 18.6128Z" fill="#F6EAD5"/>
<path d="M27.4846 20.8266C27.2632 21.4907 26.7438 22.3166 26.4203 22.9722C26.9141 23.0233 26.2755 23.8492 26.3522 23.9429C26.5225 24.1643 26.5565 23.9684 26.6928 23.747C26.8886 23.3979 28.4638 20.0006 27.4931 20.8351H27.4761L27.4846 20.8266Z" fill="#E3AF5F"/>
<path d="M26.6924 19.7537C26.6924 19.7537 26.5732 19.7026 26.5647 19.6855C25.7388 20.6392 24.5467 21.397 23.9337 22.4954L26.6924 19.7537Z" fill="#F6EAD5"/>
<path d="M31.3673 20.2903L32.9595 23.4407C32.5933 22.3167 31.9888 21.2865 31.3673 20.2903Z" fill="#E4DBD1"/>
<path d="M30.5155 20.418L30.4133 20.4605L31.7075 23.9771C31.6905 23.5428 30.6858 20.4861 30.5155 20.4265V20.418Z" fill="#E4DBD1"/>
<path d="M28.2505 20.6309C28.1739 20.9033 27.2032 24.1559 27.382 24.1814L28.2505 20.6309Z" fill="#E4DBD1"/>
<path d="M24.998 18.6128C24.7511 18.6809 21.8391 19.4642 21.9158 19.6431L24.998 18.6128Z" fill="#E4DBD1"/>
<path d="M30.073 24.309H30.1411L29.9708 22.4272L30.073 24.309Z" fill="#EFD7B6"/>
<path d="M29.7749 20.9543C29.6983 20.9543 29.826 21.925 29.843 22.0271C29.9708 22.8105 29.9708 21.8994 29.8005 21.0565V20.9884L29.7579 20.9458H29.7749V20.9543Z" fill="#F1CE9C"/>
<path d="M33.2574 16.4757C33.2574 16.7652 33.2319 16.9355 33.1893 17.208L36.1183 18.0424C35.8459 18.2383 35.65 17.9232 35.2243 17.804C34.5602 17.6252 33.8535 17.5401 33.2064 17.3357C33.2064 17.3783 33.002 17.8551 32.9339 17.9998C33.8109 18.2468 34.5772 18.7406 35.3946 19.1323C35.6245 19.2259 35.7692 19.3026 35.9906 19.4047C36.1183 19.4558 36.3908 19.4047 36.4589 19.6006C36.8336 18.6725 37.0975 17.7359 37.123 16.7141C36.7484 16.7567 36.8165 16.646 36.7825 16.646C36.0928 16.6035 35.4116 16.5439 34.7219 16.5183C34.2281 16.4928 33.7513 16.5183 33.2574 16.4502V16.4672V16.4757Z" fill="#E3AF5F"/>
<path d="M33.1891 17.208V17.3357C33.8532 17.5486 34.5514 17.6252 35.207 17.804C35.6498 17.9232 35.8286 18.2383 36.1011 18.0424L33.1721 17.208H33.1891Z" fill="#EFD7B6"/>
<path d="M32.9338 18.1446H33.0615C33.5554 18.2893 34.5005 18.8513 35.0539 19.0812C35.1561 19.1237 35.3349 19.1323 35.3945 19.1493C34.5771 18.7576 33.8193 18.2638 32.9338 18.0168V18.1446Z" fill="#F6EAD5"/>
<path d="M34.7217 16.5354C35.4114 16.5779 36.0925 16.629 36.7822 16.6631C36.2032 16.5098 35.3092 16.3736 34.7217 16.5354Z" fill="#E4DBD1"/>
<path d="M35.3942 19.1492C35.6411 19.2684 35.7007 19.3195 35.9902 19.4216C35.7689 19.3195 35.6156 19.2513 35.3942 19.1492Z" fill="#F6EAD5"/>
<path d="M35.9907 19.4131C35.9907 19.4131 36.1354 19.5663 36.459 19.6089C36.3909 19.4131 36.1184 19.4557 35.9907 19.4131Z" fill="#F6EAD5"/>
<path d="M36.4845 18.1446C36.0928 18.0169 36.6122 18.4341 36.6548 18.2468C36.6548 18.2468 36.5015 18.1532 36.4845 18.1446Z" fill="#E2BA82"/>
<path d="M35.0541 19.0897C34.5006 18.8513 33.5555 18.3063 33.0617 18.1531C32.9425 18.5022 35.2755 19.7879 35.4202 19.7623C35.9396 19.6602 34.8497 19.277 35.0541 19.0982V19.0897Z" fill="#E3AF5F"/>
<path d="M32.4655 18.9449L35.3945 21.2608C34.6963 20.1795 33.5298 19.5664 32.5336 18.8171C32.4655 18.9193 32.4655 18.9449 32.4655 18.9449Z" fill="#F6EAD5"/>
</g>
</svg>
