<svg width="130" height="30" viewBox="0 0 130 30" fill="none" xmlns="http://www.w3.org/2000/svg">
<g clip-path="url(#clip0_100_5431)">
<path d="M113.98 6.06998C113.19 6.61998 112.41 7.12998 111.45 7.31998C112.62 7.24998 113.75 6.95998 114.84 6.53998C117.29 5.59998 118.9 3.44998 120.45 1.31998C120.06 1.85998 117.14 7.15998 113.52 8.28998C116.57 8.44998 119.35 7.03998 120.96 4.42998C120.38 6.62998 118.31 8.71998 116.01 9.13998C118.84 9.32998 120.85 7.74998 122.63 5.74998C123.61 4.64998 124.56 3.48998 125.12 2.08998C124.77 3.70998 124.16 5.36998 123.25 6.75998C121.79 8.97998 119.82 10.31 117.1 10.3C119.48 11.2 121.89 10.35 123.8 8.85998C124.92 7.98998 126.05 6.83998 126.6 5.50998L126.68 5.58998C126.23 7.18998 125.4 8.71998 124.19 9.86998C122.38 11.6 120.64 11.9 118.19 11.47C120.36 12.6 122.52 12.45 124.65 11.35C126.37 10.46 127.7 8.96998 128.47 7.17998C128.24 9.21998 126.74 11.72 124.89 12.67C122.01 14.15 119.89 12.77 119.83 13.02C121.71 13.77 123.14 13.87 125.05 13.21C126.87 12.59 128.01 11.33 129.02 9.73998C128.77 11.75 127.01 13.97 125.13 14.69C123.88 15.16 122.28 15.21 121 14.88C122.23 15.6 123.68 15.54 125.05 15.31C126.71 15.03 128.4 14.07 129.37 12.66L129.49 12.78C128.59 14.35 126.49 16.23 124.74 16.64C121.84 17.31 120.91 15.77 121 16.83C121.06 17.54 123.28 18.18 123.88 18.39C123.86 18.52 121.68 18.15 121.47 18.12C121.47 17.89 120.59 17.83 120.15 17.5C120.12 17.48 119.74 17.03 119.6 16.88C119.19 16.43 118.48 15.31 117.96 14.74C115.89 12.45 113.8 10.63 111.11 9.08998C104.38 6.56998 99.3697 6.63998 92.9297 9.78998C92.9297 9.78998 92.5897 9.93998 92.5797 9.94998C88.0397 12.28 84.3097 15.76 81.2897 19.84C81.3297 19.78 81.4197 19.37 81.9897 18.55C83.0097 17.09 86.7497 12.79 88.0997 11.58C90.6997 9.25998 92.9497 8.63998 94.4097 6.20998C94.7397 6.15998 93.4997 7.93998 93.5897 7.87998C97.7997 5.41998 105.03 5.91998 107.53 5.96998C108.99 5.99998 110.19 5.73998 111.31 5.03998C112.28 4.42998 112.41 4.23998 113.06 3.86998C112.66 4.54998 111.51 5.66998 111.15 5.88998C110.22 6.46998 108.03 7.22998 111.31 6.43998C111.85 6.30998 112.33 6.04998 112.83 5.81998C115.17 4.69998 117.24 2.33998 118.24 -0.0200195C117.67 2.43998 116.06 4.62998 114 6.04998L113.98 6.06998Z" fill="#1E110F"/>
<path d="M97.3198 26.32L97.2398 26.87C96.0198 26.63 94.7898 26.31 93.5798 26.01C91.9098 25.6 90.2698 25.01 88.5998 24.61C87.0098 24.23 85.3598 23.8 83.7298 23.6C80.8498 23.24 80.7298 23.62 79.5698 22.59C80.9798 22.27 81.6598 22.63 82.6398 22.74C87.6298 23.3 92.3898 25.39 97.3198 26.32Z" fill="#84563D"/>
<path d="M120.13 17.5199C118.96 20.5499 117.23 23.3699 114.44 25.1499C114.22 25.2899 112.74 26.1199 112.65 26.1599C111.93 26.4599 108.59 27.2099 108.44 27.3699C108.43 27.3899 108.38 27.7299 108.44 27.7999C108.33 27.7999 107.94 27.8399 107.89 27.7599C109.03 27.1499 106.69 27.7899 105.71 27.6399C105.62 27.6299 105.53 27.6399 105.44 27.6399C105.26 27.3399 105.81 27.3699 105.71 26.8599C110.35 26.3999 114.13 24.6799 117.08 21.0199C118.05 19.8199 119 18.3299 119.57 16.8899C119.7 17.0399 120.08 17.4899 120.12 17.5099L120.13 17.5199Z" fill="#84563D"/>
<path d="M119.32 21.19C119.32 21.19 118.81 21.81 118.81 21.85C118.81 22.07 121.06 22.79 121.38 22.9C120.434 22.7467 119.487 22.59 118.54 22.43C118.107 22.8567 117.677 23.2867 117.25 23.72C117.25 23.88 119.82 24.98 120.13 25.16C120.2 25.19 120.6 25.37 120.6 25.43C120.13 25.39 117.02 24.12 116.82 24.14C116.77 24.15 116.37 24.6 115.93 24.81C117.25 25.43 119.26 27.48 117.87 26.48C117.59 26.27 115.4 24.64 115.23 25.51C115.23 25.66 116.78 26.47 117.02 26.56C116.65 26.49 115.01 25.92 114.84 25.78C114.24 25.94 113.21 26.27 113.44 26.4C114.02 26.73 115.23 27.71 115.77 28.19C115.15 27.82 113.32 26.79 112.81 26.71C111.78 26.57 110.41 27.5 109.23 27.53C112.44 31.18 109.74 28.11 109.03 27.81C108.62 27.63 108.51 27.81 108.45 27.81C108.39 27.73 108.44 27.39 108.45 27.38C108.6 27.22 117.36 25.77 120.13 17.53C120.58 17.86 121.46 17.92 121.46 18.15C121.29 18.13 120.79 17.91 120.68 18.03C120.547 18.5234 120.417 19.0167 120.29 19.51C120.29 19.51 120.56 19.58 120.68 19.63C121.44 19.91 122.44 19.58 122.47 19.74C121.4 20.16 120.14 19.91 120.02 19.94C119.94 19.96 119.62 20.58 119.67 20.68C119.75 20.89 121.68 21.32 122 21.42C121.3 21.74 119.61 21.05 119.32 21.19Z" fill="#1E110F"/>
<path d="M105.73 26.8701C105.82 27.3801 105.28 27.3501 105.46 27.6501C105.55 27.6501 105.65 27.6401 105.73 27.6501V27.7301C105.58 27.7201 105.42 27.7401 105.26 27.7301C104.04 27.6501 102.82 27.7001 101.6 27.5701L101.83 26.9501C103.15 27.0301 104.41 27.0001 105.72 26.8701H105.73Z" fill="#84563D"/>
<path d="M83.5301 18.9299C83.4301 18.8599 83.3501 18.7799 83.2901 18.6799C83.9701 19.5599 84.0401 19.6599 84.8501 20.7199C84.8701 20.7199 84.9001 20.7299 84.9201 20.7399C85.8501 20.9499 84.3701 19.5799 83.5301 18.9299ZM113.47 23.9899C113.23 24.1299 111.06 25.2299 111.1 24.9599C113.2 23.4999 116.4 20.4699 115.69 17.6399C115.49 16.8499 113.34 13.7899 112.27 13.7899C113.18 23.2999 103.43 29.8799 95.9501 24.4599C92.1701 21.7199 90.5601 16.5899 91.7801 12.1499C88.5401 13.0299 84.8601 15.5199 83.0801 18.3499C83.0701 18.3599 83.0701 18.3699 83.0601 18.3799C82.9301 18.4199 82.8001 18.4899 82.6701 18.5899C82.0101 19.0399 81.3501 19.9999 80.7601 20.8599C80.3201 21.4899 79.9201 22.0699 79.5601 22.3499C79.4901 22.4099 79.5301 22.5799 79.5601 22.5899C80.2401 22.7499 81.6501 22.6299 82.6301 22.7399C82.7201 22.7499 82.8101 22.7599 82.9001 22.7799C83.8501 22.8899 84.7801 23.0599 85.7001 23.2699C86.0701 23.3399 86.4301 23.4299 86.8001 23.5199C90.3101 24.3899 93.7701 25.6599 97.3101 26.3299C98.6801 26.5799 100.47 26.8699 101.83 26.9499C103.15 27.0299 104.41 26.9999 105.73 26.8699C110.37 26.4199 114.14 24.6899 117.1 21.0299C115.9 22.0299 114.83 23.1899 113.47 23.9899Z" fill="#FCFCFB"/>
<path d="M111.1 9.11006C113.79 10.6501 115.88 12.4601 117.95 14.7601C118.47 15.3301 119.17 16.4501 119.59 16.9001C119.02 18.3401 118.07 19.8301 117.1 21.0301C115.9 22.0301 114.84 23.1901 113.48 23.9901C113.24 24.1301 111.07 25.2301 111.1 24.9601C113.21 23.4901 116.41 20.4601 115.69 17.6401C115.49 16.8501 113.33 13.7901 112.26 13.7801C111.99 10.9801 110.99 9.50006 110.94 9.22006C110.91 9.09006 111 9.09006 111.1 9.10006V9.11006Z" fill="#D7D5D1"/>
<path d="M92.5601 9.96997C92.4001 10.73 91.9901 11.41 91.7801 12.15C88.5401 13.03 84.8601 15.52 83.0801 18.35C83.0701 18.36 83.0701 18.37 83.0601 18.38C82.9301 18.28 82.8801 18.34 82.7501 18.5C82.7301 18.53 82.7001 18.56 82.6701 18.59C82.2701 19.11 81.2901 20.47 80.8801 21.03C80.8201 20.94 80.8001 20.92 80.7601 20.86C80.7601 20.84 80.7501 20.82 80.7301 20.8C80.9201 20.5 81.0801 20.15 81.2701 19.86C81.7601 19.21 82.2601 18.57 82.7801 17.95C85.5101 14.7 88.7501 11.94 92.5601 9.96997Z" fill="#D7D5D1"/>
<path d="M85.7 23.27C84.78 23.06 83.85 22.89 82.9 22.78C82.81 22.76 82.72 22.75 82.63 22.74C81.65 22.63 80.24 22.75 79.56 22.59C79.53 22.58 79.49 22.41 79.56 22.35C79.92 22.07 80.75 20.82 80.73 20.8C80.92 20.5 81.08 20.15 81.27 19.86C81.76 19.21 82.18 18.68 82.78 17.95C84.11 17.35 86.41 22.16 85.7 23.27Z" fill="#F4C38F"/>
<path d="M101.83 26.9501L101.6 27.5701C100.31 27.4401 98.5398 27.1201 97.2398 26.8701L97.3198 26.3201C98.6798 26.5801 100.47 26.8601 101.84 26.9401L101.83 26.9501Z" fill="#84563D"/>
<path d="M111.1 9.11005C111.01 9.10005 110.92 9.10005 110.94 9.23005C110.99 9.50005 111.99 10.99 112.26 13.79C113.18 23.31 103.43 29.88 95.9397 24.46C92.1597 21.72 90.5497 16.6 91.7697 12.15C91.9697 11.41 92.3897 10.72 92.5497 9.97005C92.5597 9.97005 92.8897 9.82005 92.8997 9.81005C99.3497 6.66005 104.35 6.59005 111.08 9.11005H111.1Z" fill="#3F251F"/>
<path d="M110.4 18.6101C109.65 20.9101 108.04 22.9901 105.88 24.1401C105.14 22.6301 104.51 20.9701 103.7 19.5501C103.76 19.5201 104.7 18.8501 104.79 18.7701C106.21 21.3701 108.64 22.6601 106.81 20.3701C106.41 19.8701 105.53 18.9101 105.02 18.5401C105.28 18.2601 106 17.1401 106.11 16.8301L110.39 18.6201L110.4 18.6101Z" fill="#9B6236"/>
<path d="M97.3899 16.28C97.9599 19.13 101 20.78 103.7 19.55C104.51 20.98 105.14 22.63 105.88 24.14C105.65 24.26 105.42 24.35 105.18 24.45C105.27 23.99 104.59 23.11 104.4 22.7C104.32 22.53 103.43 19.97 103.19 20.17C102.97 20.85 104.11 23.6 103.58 23.6C102.92 23.6 102.68 19.99 102.14 20.76C102.01 20.94 102.52 24.6 102.37 25.16C102.27 25.16 102.16 25.16 102.06 25.16L101.63 20.33C98.8499 20.64 99.9699 20.36 99.5699 19.98C99.5199 19.93 99.4399 19.93 99.3799 19.94C99.1699 19.99 97.2999 23.58 97.2399 23.8C97.2099 23.9 97.3599 23.94 97.3199 24.07C97.0499 23.91 96.7999 23.71 96.5399 23.52C96.7899 22.72 99.4399 18.79 98.3299 19.35C98.1399 19.45 96.8199 21.73 95.3699 22.5C94.9999 22.12 95.0699 22.13 95.0599 22.11C95.3899 21.68 98.1199 18.95 98.0999 18.72C98.0299 18.04 96.6199 19.77 95.8399 19.5C96.1799 18.61 98.2599 17.66 97.1299 17.75C96.8899 17.77 95.0499 19.18 94.6399 19.39C94.5899 19.42 93.9199 19.48 93.5099 19.86C93.4099 19.64 93.3599 19.45 93.2799 19.24C93.7599 18.89 96.8699 17.57 96.9799 17.37C97.0699 17.2 96.6699 16.91 96.6299 16.75C96.6699 16.73 97.3799 16.31 97.4099 16.28H97.3899Z" fill="#A96D47"/>
<path d="M97.7798 13.4001C97.3098 14.5601 97.9598 15.7301 97.3898 16.2801C97.3598 16.3101 96.6498 16.7301 96.6098 16.7501C95.0698 17.4801 93.5398 17.2901 92.5598 15.8201C92.5398 14.5301 92.5498 13.1501 93.8098 12.3901C94.9798 11.6801 97.3598 11.8601 97.7798 13.4001Z" fill="#E4CDB9"/>
<path d="M102.07 25.1601C101.1 25.2101 100.77 25.2001 99.8098 25.0001C99.7898 24.8701 99.6598 24.9901 99.6498 24.8101C99.6498 24.5701 100.44 21.6101 100.23 21.5801L99.0998 24.8501C98.4898 24.6701 97.8598 24.3901 97.3098 24.0701C97.3498 23.9401 97.2098 23.9001 97.2298 23.8001C97.2898 23.5901 99.1598 19.9901 99.3698 19.9401C99.4398 19.9201 99.5098 19.9301 99.5598 19.9801C99.9598 20.3601 98.8398 20.6401 101.62 20.3301L102.05 25.1601H102.07Z" fill="#9B6236"/>
<path d="M110.48 12.5399C110.02 12.4199 110.49 13.1299 109.93 14.3299C109.93 14.3299 109.91 14.2999 109.85 14.4099C108.83 14.0799 107.99 14.5599 107.83 14.3299C109.71 11.9399 106.19 8.62988 104.33 11.3699C103.99 11.2799 104.13 11.7499 103.86 11.8799L104.02 10.1299C104.02 10.1299 104.07 10.0399 104.53 10.2099C106.76 7.60988 109.63 9.98988 110.49 12.5499L110.48 12.5399Z" fill="#BD885D"/>
<path d="M110.87 14.4901C110.97 15.6001 110.95 16.7501 110.71 17.8401C109.14 17.5201 107.69 16.8201 106.19 16.2801C106.22 16.1401 106.25 16.0401 106.27 15.8901C107.56 16.3201 109.21 15.6001 109.85 14.4101C109.91 14.3001 109.93 14.3401 109.93 14.3301C109.85 14.7201 110.57 14.4901 110.86 14.4901H110.87Z" fill="#9B6236"/>
<path d="M105.18 24.4501C104.17 24.8701 103.47 25.0601 102.38 25.1501C102.53 24.5901 102.02 20.9301 102.15 20.7501C102.69 19.9801 102.93 23.5901 103.59 23.5901C104.12 23.5901 102.98 20.8401 103.2 20.1601C103.44 19.9601 104.33 22.5201 104.41 22.6901C104.6 23.1001 105.28 23.9801 105.19 24.4401L105.18 24.4501Z" fill="#A96D47"/>
<path d="M95.0602 22.1201C94.3802 21.3401 93.9602 20.8301 93.5002 19.8601C93.9102 19.4801 94.5702 19.4201 94.6302 19.3901C95.0502 19.1801 96.8902 17.7701 97.1202 17.7501C98.2602 17.6601 96.1702 18.6101 95.8302 19.5001C96.6102 19.7701 98.0202 18.0401 98.0902 18.7201C98.1102 18.9501 95.3802 21.6801 95.0502 22.1101L95.0602 22.1201Z" fill="#A96D47"/>
<path d="M101.37 9.66009C101.47 10.1601 101.33 10.6801 101.68 11.0601C100.41 10.8801 99.1302 11.5401 98.3302 12.5401C97.9502 12.5001 98.0302 12.3201 98.0202 12.3101C98.1402 11.7501 96.3702 10.8301 96.9702 10.4401C97.3002 10.2301 97.6702 10.3701 97.7102 10.3601L98.5702 11.4101L97.9502 10.1201C98.2002 10.0601 98.4302 9.94009 98.6902 9.96009C99.1702 11.1901 99.4402 11.3401 98.9602 9.92009L99.0802 9.80009C99.8502 9.73009 100.6 9.62009 101.38 9.64009L101.37 9.66009Z" fill="#A96D47"/>
<path d="M96.61 16.74C96.65 16.9 97.05 17.19 96.96 17.36C96.85 17.56 93.74 18.88 93.26 19.23C92.82 18.06 92.58 17.07 92.56 15.8C93.54 17.27 95.07 17.47 96.61 16.73V16.74Z" fill="#9B6236"/>
<path d="M104.01 10.1199L103.85 11.8699C104.12 11.7499 103.97 11.2699 104.32 11.3599C104.16 11.5899 103.88 12.1199 103.85 12.3699C103.31 11.6899 102.54 11.1699 101.67 11.0499C101.32 10.6699 101.46 10.1499 101.36 9.6499C101.88 9.6599 102.59 9.7399 103.11 9.8099C103.49 9.8599 103.96 10.1099 104.01 10.1199Z" fill="#BD885D"/>
<path d="M98.0201 12.3101C98.0201 12.3101 97.9501 12.5001 98.3301 12.5401C98.1501 12.7601 97.8901 13.1401 97.7801 13.4001C97.3501 11.8501 94.9801 11.6801 93.8101 12.3901C93.2401 12.5601 93.9401 12.1001 94.3201 11.8401C96.7901 10.1601 96.3701 10.7001 98.0201 12.3101Z" fill="#A96D47"/>
<path d="M96.5402 23.5201C96.1002 23.2101 95.7502 22.8901 95.3702 22.5101C96.8202 21.7301 98.1402 19.4501 98.3302 19.3601C99.4402 18.8001 96.7902 22.7301 96.5402 23.5301V23.5201Z" fill="#9B6236"/>
<path d="M110.71 17.83C110.65 18.09 110.48 18.36 110.4 18.61L106.12 16.82C106.12 16.82 106.15 16.47 106.2 16.27C107.7 16.81 109.15 17.51 110.72 17.83H110.71Z" fill="#A96D47"/>
<path d="M99.8098 25.0001C99.5698 24.9501 99.3398 24.9101 99.1098 24.8401L100.24 21.5701C100.45 21.6101 99.6498 24.5701 99.6598 24.8001C99.6598 24.9801 99.7998 24.8601 99.8198 24.9901L99.8098 25.0001Z" fill="#A96D47"/>
<path d="M110.48 12.54C110.67 13.09 110.82 13.9 110.87 14.49C110.57 14.49 109.85 14.72 109.94 14.33C110.5 13.13 110.03 12.42 110.49 12.54H110.48Z" fill="#997054"/>
<path d="M97.7101 10.3599C97.8201 10.3199 97.7701 10.1699 97.9401 10.1299L98.5601 11.4199L97.7001 10.3699L97.7101 10.3599Z" fill="#6A4232"/>
<path d="M101.68 11.0601C102.56 11.1901 103.32 11.7001 103.86 12.3801C103.68 13.8601 104.67 15.3501 106.27 15.1801C106.43 15.4101 106.31 15.6401 106.27 15.8801C106.25 16.0301 106.23 16.1201 106.19 16.2701C106.14 16.4701 106.13 16.7701 106.11 16.8201C106 17.1301 105.28 18.2601 105.02 18.5301C104.96 18.5901 104.85 18.7101 104.79 18.7601C104.7 18.8401 103.76 19.5101 103.7 19.5401C101 20.7701 97.9702 19.1201 97.3902 16.2701C97.9602 15.7201 97.3102 14.5501 97.7802 13.3901C97.8802 13.1301 98.1502 12.7501 98.3302 12.5301C99.1302 11.5301 100.41 10.8701 101.68 11.0501V11.0601Z" fill="#201113"/>
<path d="M104.79 18.77C104.85 18.71 104.97 18.6 105.02 18.54C105.54 18.91 106.42 19.87 106.81 20.37C108.63 22.66 106.21 21.37 104.79 18.77Z" fill="#A96D47"/>
<path d="M107.83 14.33C107.54 14.7 106.74 15.14 106.27 15.19C104.67 15.35 103.67 13.86 103.86 12.39C103.89 12.14 104.17 11.61 104.33 11.38C106.2 8.63996 109.71 11.95 107.83 14.34V14.33Z" fill="#FCFCFB"/>
<path d="M109.85 14.4099C109.21 15.5999 107.55 16.3199 106.27 15.8899C106.31 15.6499 106.43 15.4199 106.27 15.1899C106.74 15.1399 107.54 14.6999 107.83 14.3299C108 14.5599 108.84 14.0799 109.85 14.4099Z" fill="#BD885D"/>
</g>
<g clip-path="url(#clip1_100_5431)">
<path d="M16.0203 6.06998C16.8103 6.61998 17.5903 7.12998 18.5503 7.31998C17.3803 7.24998 16.2503 6.95998 15.1603 6.53998C12.7103 5.59998 11.1003 3.44998 9.55025 1.31998C9.94025 1.85998 12.8603 7.15998 16.4803 8.28998C13.4303 8.44998 10.6503 7.03998 9.04025 4.42998C9.62025 6.62998 11.6903 8.71998 13.9903 9.13998C11.1603 9.32998 9.15025 7.74998 7.37025 5.74998C6.39025 4.64998 5.44025 3.48998 4.88025 2.08998C5.23025 3.70998 5.84025 5.36998 6.75025 6.75998C8.21025 8.97998 10.1803 10.31 12.9003 10.3C10.5203 11.2 8.11025 10.35 6.20025 8.85998C5.08025 7.98998 3.95025 6.83998 3.40025 5.50998L3.32025 5.58998C3.77025 7.18998 4.60025 8.71998 5.81025 9.86998C7.62025 11.6 9.36025 11.9 11.8103 11.47C9.64025 12.6 7.48025 12.45 5.35025 11.35C3.63025 10.46 2.30025 8.96998 1.53025 7.17998C1.76025 9.21998 3.26025 11.72 5.11025 12.67C7.99025 14.15 10.1103 12.77 10.1703 13.02C8.29025 13.77 6.86025 13.87 4.95025 13.21C3.13025 12.59 1.99025 11.33 0.980254 9.73998C1.23025 11.75 2.99025 13.97 4.87025 14.69C6.12025 15.16 7.72025 15.21 9.00025 14.88C7.77025 15.6 6.32025 15.54 4.95025 15.31C3.29025 15.03 1.60025 14.07 0.630254 12.66L0.510254 12.78C1.41025 14.35 3.51025 16.23 5.26025 16.64C8.16025 17.31 9.09025 15.77 9.00025 16.83C8.94025 17.54 6.72025 18.18 6.12025 18.39C6.14025 18.52 8.32025 18.15 8.53025 18.12C8.53025 17.89 9.41025 17.83 9.85025 17.5C9.88025 17.48 10.2603 17.03 10.4003 16.88C10.8103 16.43 11.5203 15.31 12.0403 14.74C14.1103 12.45 16.2003 10.63 18.8903 9.08998C25.6203 6.56998 30.6303 6.63998 37.0703 9.78998C37.0703 9.78998 37.4103 9.93998 37.4203 9.94998C41.9603 12.28 45.6903 15.76 48.7103 19.84C48.6703 19.78 48.5803 19.37 48.0103 18.55C46.9903 17.09 43.2503 12.79 41.9003 11.58C39.3003 9.25998 37.0503 8.63998 35.5903 6.20998C35.2603 6.15998 36.5003 7.93998 36.4103 7.87998C32.2003 5.41998 24.9703 5.91998 22.4703 5.96998C21.0103 5.99998 19.8103 5.73998 18.6903 5.03998C17.7203 4.42998 17.5903 4.23998 16.9403 3.86998C17.3403 4.54998 18.4903 5.66998 18.8503 5.88998C19.7803 6.46998 21.9703 7.22998 18.6903 6.43998C18.1503 6.30998 17.6703 6.04998 17.1703 5.81998C14.8303 4.69998 12.7603 2.33998 11.7603 -0.0200195C12.3303 2.43998 13.9403 4.62998 16.0003 6.04998L16.0203 6.06998Z" fill="#1E110F"/>
<path d="M32.6802 26.32L32.7602 26.87C33.9802 26.63 35.2102 26.31 36.4202 26.01C38.0902 25.6 39.7302 25.01 41.4002 24.61C42.9902 24.23 44.6402 23.8 46.2702 23.6C49.1502 23.24 49.2702 23.62 50.4302 22.59C49.0202 22.27 48.3402 22.63 47.3602 22.74C42.3702 23.3 37.6102 25.39 32.6802 26.32Z" fill="#84563D"/>
<path d="M9.87012 17.5199C11.0401 20.5499 12.7701 23.3699 15.5601 25.1499C15.7801 25.2899 17.2601 26.1199 17.3501 26.1599C18.0701 26.4599 21.4101 27.2099 21.5601 27.3699C21.5701 27.3899 21.6201 27.7299 21.5601 27.7999C21.6701 27.7999 22.0601 27.8399 22.1101 27.7599C20.9701 27.1499 23.3101 27.7899 24.2901 27.6399C24.3801 27.6299 24.4701 27.6399 24.5601 27.6399C24.7401 27.3399 24.1901 27.3699 24.2901 26.8599C19.6501 26.3999 15.8701 24.6799 12.9201 21.0199C11.9501 19.8199 11.0001 18.3299 10.4301 16.8899C10.3001 17.0399 9.92012 17.4899 9.88012 17.5099L9.87012 17.5199Z" fill="#84563D"/>
<path d="M10.6798 21.19C10.6798 21.19 11.1898 21.81 11.1898 21.85C11.1898 22.07 8.93979 22.79 8.61979 22.9C9.56645 22.7467 10.5131 22.59 11.4598 22.43C11.8931 22.8567 12.3231 23.2867 12.7498 23.72C12.7498 23.88 10.1798 24.98 9.86979 25.16C9.79979 25.19 9.39979 25.37 9.39979 25.43C9.86979 25.39 12.9798 24.12 13.1798 24.14C13.2298 24.15 13.6298 24.6 14.0698 24.81C12.7498 25.43 10.7398 27.48 12.1298 26.48C12.4098 26.27 14.5998 24.64 14.7698 25.51C14.7698 25.66 13.2198 26.47 12.9798 26.56C13.3498 26.49 14.9898 25.92 15.1598 25.78C15.7598 25.94 16.7898 26.27 16.5598 26.4C15.9798 26.73 14.7698 27.71 14.2298 28.19C14.8498 27.82 16.6798 26.79 17.1898 26.71C18.2198 26.57 19.5898 27.5 20.7698 27.53C17.5598 31.18 20.2598 28.11 20.9698 27.81C21.3798 27.63 21.4898 27.81 21.5498 27.81C21.6098 27.73 21.5598 27.39 21.5498 27.38C21.3998 27.22 12.6398 25.77 9.86979 17.53C9.41979 17.86 8.53979 17.92 8.53979 18.15C8.70979 18.13 9.20979 17.91 9.31979 18.03C9.45312 18.5234 9.58312 19.0167 9.70978 19.51C9.70978 19.51 9.43979 19.58 9.31979 19.63C8.55979 19.91 7.55979 19.58 7.52979 19.74C8.59979 20.16 9.85978 19.91 9.97978 19.94C10.0598 19.96 10.3798 20.58 10.3298 20.68C10.2498 20.89 8.31978 21.32 7.99978 21.42C8.69978 21.74 10.3898 21.05 10.6798 21.19Z" fill="#1E110F"/>
<path d="M24.27 26.8701C24.18 27.3801 24.72 27.3501 24.54 27.6501C24.45 27.6501 24.35 27.6401 24.27 27.6501V27.7301C24.42 27.7201 24.58 27.7401 24.74 27.7301C25.96 27.6501 27.18 27.7001 28.4 27.5701L28.17 26.9501C26.85 27.0301 25.59 27.0001 24.28 26.8701H24.27Z" fill="#84563D"/>
<path d="M46.4699 18.9299C46.5699 18.8599 46.6499 18.7799 46.7099 18.6799C46.0299 19.5599 45.9599 19.6599 45.1499 20.7199C45.1299 20.7199 45.0999 20.7299 45.0799 20.7399C44.1499 20.9499 45.6299 19.5799 46.4699 18.9299ZM16.5299 23.9899C16.7699 24.1299 18.9399 25.2299 18.8999 24.9599C16.7999 23.4999 13.5999 20.4699 14.3099 17.6399C14.5099 16.8499 16.6599 13.7899 17.7299 13.7899C16.8199 23.2999 26.5699 29.8799 34.0499 24.4599C37.8299 21.7199 39.4399 16.5899 38.2199 12.1499C41.4599 13.0299 45.1399 15.5199 46.9199 18.3499C46.9299 18.3599 46.9299 18.3699 46.9399 18.3799C47.0699 18.4199 47.1999 18.4899 47.3299 18.5899C47.9899 19.0399 48.6499 19.9999 49.2399 20.8599C49.6799 21.4899 50.0799 22.0699 50.4399 22.3499C50.5099 22.4099 50.4699 22.5799 50.4399 22.5899C49.7599 22.7499 48.3499 22.6299 47.3699 22.7399C47.2799 22.7499 47.1899 22.7599 47.0999 22.7799C46.1499 22.8899 45.2199 23.0599 44.2999 23.2699C43.9299 23.3399 43.5699 23.4299 43.1999 23.5199C39.6899 24.3899 36.2299 25.6599 32.6899 26.3299C31.3199 26.5799 29.5299 26.8699 28.1699 26.9499C26.8499 27.0299 25.5899 26.9999 24.2699 26.8699C19.6299 26.4199 15.8599 24.6899 12.8999 21.0299C14.0999 22.0299 15.1699 23.1899 16.5299 23.9899Z" fill="#FCFCFB"/>
<path d="M18.9002 9.11006C16.2102 10.6501 14.1202 12.4601 12.0502 14.7601C11.5302 15.3301 10.8302 16.4501 10.4102 16.9001C10.9802 18.3401 11.9302 19.8301 12.9002 21.0301C14.1002 22.0301 15.1602 23.1901 16.5202 23.9901C16.7602 24.1301 18.9302 25.2301 18.9002 24.9601C16.7902 23.4901 13.5902 20.4601 14.3102 17.6401C14.5102 16.8501 16.6702 13.7901 17.7402 13.7801C18.0102 10.9801 19.0102 9.50006 19.0602 9.22006C19.0902 9.09006 19.0002 9.09006 18.9002 9.10006V9.11006Z" fill="#D7D5D1"/>
<path d="M37.4399 9.96997C37.5999 10.73 38.0099 11.41 38.2199 12.15C41.4599 13.03 45.1399 15.52 46.9199 18.35C46.9299 18.36 46.9299 18.37 46.9399 18.38C47.0699 18.28 47.1199 18.34 47.2499 18.5C47.2699 18.53 47.2999 18.56 47.3299 18.59C47.7299 19.11 48.7099 20.47 49.1199 21.03C49.1799 20.94 49.1999 20.92 49.2399 20.86C49.2399 20.84 49.2499 20.82 49.2699 20.8C49.0799 20.5 48.9199 20.15 48.7299 19.86C48.2399 19.21 47.7399 18.57 47.2199 17.95C44.4899 14.7 41.2499 11.94 37.4399 9.96997Z" fill="#D7D5D1"/>
<path d="M44.3 23.27C45.22 23.06 46.15 22.89 47.1 22.78C47.19 22.76 47.28 22.75 47.37 22.74C48.35 22.63 49.76 22.75 50.44 22.59C50.47 22.58 50.51 22.41 50.44 22.35C50.08 22.07 49.25 20.82 49.27 20.8C49.08 20.5 48.92 20.15 48.73 19.86C48.24 19.21 47.82 18.68 47.22 17.95C45.89 17.35 43.59 22.16 44.3 23.27Z" fill="#F4C38F"/>
<path d="M28.1702 26.9501L28.4002 27.5701C29.6902 27.4401 31.4602 27.1201 32.7602 26.8701L32.6802 26.3201C31.3202 26.5801 29.5302 26.8601 28.1602 26.9401L28.1702 26.9501Z" fill="#84563D"/>
<path d="M18.9003 9.11005C18.9903 9.10005 19.0803 9.10005 19.0603 9.23005C19.0103 9.50005 18.0103 10.99 17.7403 13.79C16.8203 23.31 26.5703 29.88 34.0603 24.46C37.8403 21.72 39.4503 16.6 38.2303 12.15C38.0303 11.41 37.6103 10.72 37.4503 9.97005C37.4403 9.97005 37.1103 9.82005 37.1003 9.81005C30.6503 6.66005 25.6503 6.59005 18.9203 9.11005H18.9003Z" fill="#3F251F"/>
<path d="M19.6001 18.6101C20.3501 20.9101 21.9601 22.9901 24.1201 24.1401C24.8601 22.6301 25.4901 20.9701 26.3001 19.5501C26.2401 19.5201 25.3001 18.8501 25.2101 18.7701C23.7901 21.3701 21.3601 22.6601 23.1901 20.3701C23.5901 19.8701 24.4701 18.9101 24.9801 18.5401C24.7201 18.2601 24.0001 17.1401 23.8901 16.8301L19.6101 18.6201L19.6001 18.6101Z" fill="#9B6236"/>
<path d="M32.6101 16.28C32.0401 19.13 29.0001 20.78 26.3001 19.55C25.4901 20.98 24.8601 22.63 24.1201 24.14C24.3501 24.26 24.5801 24.35 24.8201 24.45C24.7301 23.99 25.4101 23.11 25.6001 22.7C25.6801 22.53 26.5701 19.97 26.8101 20.17C27.0301 20.85 25.8901 23.6 26.4201 23.6C27.0801 23.6 27.3201 19.99 27.8601 20.76C27.9901 20.94 27.4801 24.6 27.6301 25.16C27.7301 25.16 27.8401 25.16 27.9401 25.16L28.3701 20.33C31.1501 20.64 30.0301 20.36 30.4301 19.98C30.4801 19.93 30.5601 19.93 30.6201 19.94C30.8301 19.99 32.7001 23.58 32.7601 23.8C32.7901 23.9 32.6401 23.94 32.6801 24.07C32.9501 23.91 33.2001 23.71 33.4601 23.52C33.2101 22.72 30.5601 18.79 31.6701 19.35C31.8601 19.45 33.1801 21.73 34.6301 22.5C35.0001 22.12 34.9301 22.13 34.9401 22.11C34.6101 21.68 31.8801 18.95 31.9001 18.72C31.9701 18.04 33.3801 19.77 34.1601 19.5C33.8201 18.61 31.7401 17.66 32.8701 17.75C33.1101 17.77 34.9501 19.18 35.3601 19.39C35.4101 19.42 36.0801 19.48 36.4901 19.86C36.5901 19.64 36.6401 19.45 36.7201 19.24C36.2401 18.89 33.1301 17.57 33.0201 17.37C32.9301 17.2 33.3301 16.91 33.3701 16.75C33.3301 16.73 32.6201 16.31 32.5901 16.28H32.6101Z" fill="#A96D47"/>
<path d="M32.2202 13.4001C32.6902 14.5601 32.0402 15.7301 32.6102 16.2801C32.6402 16.3101 33.3502 16.7301 33.3902 16.7501C34.9302 17.4801 36.4602 17.2901 37.4402 15.8201C37.4602 14.5301 37.4502 13.1501 36.1902 12.3901C35.0202 11.6801 32.6402 11.8601 32.2202 13.4001Z" fill="#E4CDB9"/>
<path d="M27.9302 25.1601C28.9002 25.2101 29.2302 25.2001 30.1902 25.0001C30.2102 24.8701 30.3402 24.9901 30.3502 24.8101C30.3502 24.5701 29.5602 21.6101 29.7702 21.5801L30.9002 24.8501C31.5102 24.6701 32.1402 24.3901 32.6902 24.0701C32.6502 23.9401 32.7902 23.9001 32.7702 23.8001C32.7102 23.5901 30.8402 19.9901 30.6302 19.9401C30.5602 19.9201 30.4902 19.9301 30.4402 19.9801C30.0402 20.3601 31.1602 20.6401 28.3802 20.3301L27.9502 25.1601H27.9302Z" fill="#9B6236"/>
<path d="M19.5203 12.5399C19.9803 12.4199 19.5103 13.1299 20.0703 14.3299C20.0703 14.3299 20.0903 14.2999 20.1503 14.4099C21.1703 14.0799 22.0103 14.5599 22.1703 14.3299C20.2903 11.9399 23.8103 8.62988 25.6703 11.3699C26.0103 11.2799 25.8703 11.7499 26.1403 11.8799L25.9803 10.1299C25.9803 10.1299 25.9303 10.0399 25.4703 10.2099C23.2403 7.60988 20.3703 9.98988 19.5103 12.5499L19.5203 12.5399Z" fill="#BD885D"/>
<path d="M19.1299 14.4901C19.0299 15.6001 19.0499 16.7501 19.2899 17.8401C20.8599 17.5201 22.3099 16.8201 23.8099 16.2801C23.7799 16.1401 23.7499 16.0401 23.7299 15.8901C22.4399 16.3201 20.7899 15.6001 20.1499 14.4101C20.0899 14.3001 20.0699 14.3401 20.0699 14.3301C20.1499 14.7201 19.4299 14.4901 19.1399 14.4901H19.1299Z" fill="#9B6236"/>
<path d="M24.8199 24.4501C25.8299 24.8701 26.5299 25.0601 27.6199 25.1501C27.4699 24.5901 27.9799 20.9301 27.8499 20.7501C27.3099 19.9801 27.0699 23.5901 26.4099 23.5901C25.8799 23.5901 27.0199 20.8401 26.7999 20.1601C26.5599 19.9601 25.6699 22.5201 25.5899 22.6901C25.3999 23.1001 24.7199 23.9801 24.8099 24.4401L24.8199 24.4501Z" fill="#A96D47"/>
<path d="M34.9398 22.1201C35.6198 21.3401 36.0398 20.8301 36.4998 19.8601C36.0898 19.4801 35.4298 19.4201 35.3698 19.3901C34.9498 19.1801 33.1098 17.7701 32.8798 17.7501C31.7398 17.6601 33.8298 18.6101 34.1698 19.5001C33.3898 19.7701 31.9798 18.0401 31.9098 18.7201C31.8898 18.9501 34.6198 21.6801 34.9498 22.1101L34.9398 22.1201Z" fill="#A96D47"/>
<path d="M28.6298 9.66009C28.5298 10.1601 28.6698 10.6801 28.3198 11.0601C29.5898 10.8801 30.8698 11.5401 31.6698 12.5401C32.0498 12.5001 31.9698 12.3201 31.9798 12.3101C31.8598 11.7501 33.6298 10.8301 33.0298 10.4401C32.6998 10.2301 32.3298 10.3701 32.2898 10.3601L31.4298 11.4101L32.0498 10.1201C31.7998 10.0601 31.5698 9.94009 31.3098 9.96009C30.8298 11.1901 30.5598 11.3401 31.0398 9.92009L30.9198 9.80009C30.1498 9.73009 29.3998 9.62009 28.6198 9.64009L28.6298 9.66009Z" fill="#A96D47"/>
<path d="M33.39 16.74C33.35 16.9 32.95 17.19 33.04 17.36C33.15 17.56 36.26 18.88 36.74 19.23C37.18 18.06 37.42 17.07 37.44 15.8C36.46 17.27 34.93 17.47 33.39 16.73V16.74Z" fill="#9B6236"/>
<path d="M25.9902 10.1199L26.1502 11.8699C25.8802 11.7499 26.0302 11.2699 25.6802 11.3599C25.8402 11.5899 26.1202 12.1199 26.1502 12.3699C26.6902 11.6899 27.4602 11.1699 28.3302 11.0499C28.6802 10.6699 28.5402 10.1499 28.6402 9.6499C28.1202 9.6599 27.4102 9.7399 26.8902 9.8099C26.5102 9.8599 26.0402 10.1099 25.9902 10.1199Z" fill="#BD885D"/>
<path d="M31.9799 12.3101C31.9799 12.3101 32.0499 12.5001 31.6699 12.5401C31.8499 12.7601 32.1099 13.1401 32.2199 13.4001C32.6499 11.8501 35.0199 11.6801 36.1899 12.3901C36.7599 12.5601 36.0599 12.1001 35.6799 11.8401C33.2099 10.1601 33.6299 10.7001 31.9799 12.3101Z" fill="#A96D47"/>
<path d="M33.4598 23.5201C33.8998 23.2101 34.2498 22.8901 34.6298 22.5101C33.1798 21.7301 31.8598 19.4501 31.6698 19.3601C30.5598 18.8001 33.2098 22.7301 33.4598 23.5301V23.5201Z" fill="#9B6236"/>
<path d="M19.2898 17.83C19.3498 18.09 19.5198 18.36 19.5998 18.61L23.8798 16.82C23.8798 16.82 23.8498 16.47 23.7998 16.27C22.2998 16.81 20.8498 17.51 19.2798 17.83H19.2898Z" fill="#A96D47"/>
<path d="M30.1902 25.0001C30.4302 24.9501 30.6602 24.9101 30.8902 24.8401L29.7602 21.5701C29.5502 21.6101 30.3502 24.5701 30.3402 24.8001C30.3402 24.9801 30.2002 24.8601 30.1802 24.9901L30.1902 25.0001Z" fill="#A96D47"/>
<path d="M19.5199 12.54C19.3299 13.09 19.1799 13.9 19.1299 14.49C19.4299 14.49 20.1499 14.72 20.0599 14.33C19.4999 13.13 19.9699 12.42 19.5099 12.54H19.5199Z" fill="#997054"/>
<path d="M32.2899 10.3599C32.1799 10.3199 32.2299 10.1699 32.0599 10.1299L31.4399 11.4199L32.2999 10.3699L32.2899 10.3599Z" fill="#6A4232"/>
<path d="M28.3198 11.0601C27.4398 11.1901 26.6798 11.7001 26.1398 12.3801C26.3198 13.8601 25.3298 15.3501 23.7298 15.1801C23.5698 15.4101 23.6898 15.6401 23.7298 15.8801C23.7498 16.0301 23.7698 16.1201 23.8098 16.2701C23.8598 16.4701 23.8698 16.7701 23.8898 16.8201C23.9998 17.1301 24.7198 18.2601 24.9798 18.5301C25.0398 18.5901 25.1498 18.7101 25.2098 18.7601C25.2998 18.8401 26.2398 19.5101 26.2998 19.5401C28.9998 20.7701 32.0298 19.1201 32.6098 16.2701C32.0398 15.7201 32.6898 14.5501 32.2198 13.3901C32.1198 13.1301 31.8498 12.7501 31.6698 12.5301C30.8698 11.5301 29.5898 10.8701 28.3198 11.0501V11.0601Z" fill="#201113"/>
<path d="M25.2102 18.77C25.1502 18.71 25.0302 18.6 24.9802 18.54C24.4602 18.91 23.5802 19.87 23.1902 20.37C21.3702 22.66 23.7902 21.37 25.2102 18.77Z" fill="#A96D47"/>
<path d="M22.1703 14.33C22.4603 14.7 23.2603 15.14 23.7303 15.19C25.3303 15.35 26.3303 13.86 26.1403 12.39C26.1103 12.14 25.8303 11.61 25.6703 11.38C23.8003 8.63996 20.2903 11.95 22.1703 14.34V14.33Z" fill="#FCFCFB"/>
<path d="M20.1499 14.4099C20.7899 15.5999 22.4499 16.3199 23.7299 15.8899C23.6899 15.6499 23.5699 15.4199 23.7299 15.1899C23.2599 15.1399 22.4599 14.6999 22.1699 14.3299C21.9999 14.5599 21.1599 14.0799 20.1499 14.4099Z" fill="#BD885D"/>
</g>
<defs>
<clipPath id="clip0_100_5431">
<rect width="49.96" height="29.3" fill="white" transform="matrix(-1 0 0 1 129.48 0)"/>
</clipPath>
<clipPath id="clip1_100_5431">
<rect width="49.96" height="29.3" fill="white" transform="translate(0.52002)"/>
</clipPath>
</defs>
</svg>
