<svg width="60" height="59" viewBox="0 0 60 59" fill="none" xmlns="http://www.w3.org/2000/svg">
<g clip-path="url(#clip0_100_6360)">
<path d="M34.0502 21.7389C34.1711 21.7993 34.4008 21.9081 34.4975 21.9686C35.5615 22.5731 37.1937 24.157 37.7619 25.233C37.7619 25.2451 37.7619 25.3418 37.8707 25.5715C38.2818 26.4541 38.838 28.3403 38.8863 29.2833C38.8863 29.38 38.8863 30.2505 38.8863 30.2989C38.8501 30.7221 38.3181 32.4994 38.1005 32.9951C38.0158 33.2006 37.8949 33.5271 37.8707 33.5633C37.3025 34.5789 35.5131 36.054 34.4975 36.598C34.1832 36.7673 34.1832 36.8157 34.159 36.8277C33.095 37.3355 31.7167 37.6378 30.556 37.7224C30.145 37.7587 29.6734 37.8433 29.4316 37.8312C28.2951 37.795 26.7234 37.3476 25.7199 36.8157C25.5627 36.731 25.2967 36.598 25.2725 36.5859C24.6801 36.2232 22.9753 34.4943 22.5763 33.8898C22.4554 33.6963 22.1653 33.2852 22.129 33.2127C21.8026 32.5719 21.3189 30.8913 21.2343 30.178C21.198 29.912 21.1255 29.235 21.1255 29.1624C21.1255 28.0501 21.4761 26.9136 21.9114 25.898C22.0202 25.6562 22.2499 25.0517 22.3587 24.8824C22.8907 24.024 24.6075 22.4401 25.5143 21.9565C25.6231 21.8961 26.1551 21.6301 26.1914 21.618C27.074 21.2794 28.5248 21.0135 29.4558 20.9409C29.7702 20.9167 30.8462 20.82 30.9187 20.8321C31.8618 20.8805 33.2159 21.3157 34.0743 21.7268L34.0502 21.7389Z" fill="#F9B047"/>
<path d="M37.762 25.2206C37.1937 24.1445 35.5615 22.5607 34.4976 21.9561C40.2889 17.1804 40.0833 9.67225 48.7401 8.2214C52.5244 7.59269 52.4881 9.49089 51.7264 12.6707C49.8766 20.336 42.8762 19.6952 37.762 25.2206Z" fill="#F8AEAE"/>
<path d="M34.1591 36.8154C34.7878 37.8552 35.0901 39.0522 35.622 40.1403C38.7414 46.5845 44.0854 51.3119 38.0401 58.4331C35.4044 57.5505 32.6962 54.008 31.7894 51.3965C30.2418 46.9714 31.0881 42.2924 30.5562 37.7222C31.7168 37.6255 33.0951 37.3353 34.1591 36.8275V36.8154Z" fill="#F8AEAE"/>
<path d="M29.432 37.831C29.2869 41.6758 28.9483 45.5205 29.2022 49.3653C28.8395 51.3723 23.822 58.5419 22.0568 58.2034C20.9928 57.9979 18.1153 52.7385 19.9772 47.7935C20.751 45.7382 24.8739 40.2249 25.7202 36.8154C26.7358 37.3474 28.3076 37.7827 29.432 37.831Z" fill="#DD5353"/>
<path d="M25.4904 21.9563C24.5836 22.4399 22.8789 24.0238 22.3348 24.8822C18.9495 22.2344 15.0926 20.3362 11.526 17.9544C8.75724 13.759 4.54977 5.19898 13.944 9.00747C20.1223 11.5102 20.5454 17.8698 25.4783 21.9563H25.4904Z" fill="#DD5353"/>
<path d="M29.4315 20.9406C28.5005 21.0131 27.0497 21.267 26.1671 21.6176C23.1324 15.379 19.0821 12.2476 20.4241 4.67894C20.5813 3.82052 21.5727 0.519833 22.5037 0.350567C23.4467 0.16921 25.2361 1.98278 25.8286 2.65984C30.2658 7.78619 28.8754 14.7261 29.4315 20.9527V20.9406Z" fill="#F8AEAE"/>
<path d="M21.8872 25.8977C21.4519 26.9133 21.1134 28.0498 21.1013 29.1621C15.842 28.9203 8.61189 29.7666 4.27142 26.466C1.27299 24.1809 -0.637297 21.255 4.27142 19.8283C11.3201 17.7729 15.5518 24.06 21.8872 25.9098V25.8977Z" fill="#F8AEAE"/>
<path d="M38.8867 29.271C38.8383 28.3159 38.2822 26.4419 37.8711 25.5593C44.2911 23.7336 49.3933 17.9423 56.5025 19.9251C60.3593 21.0012 59.2833 22.8994 56.841 25.0998C52.2708 29.2227 44.6901 29.138 38.8867 29.271Z" fill="#DD5353"/>
<path d="M34.4976 36.5977C35.5252 36.0415 37.3146 34.5665 37.8708 33.563C40.3735 35.7514 42.9971 37.8067 46.0318 39.3059C47.3981 39.983 51.6781 40.4908 52.5002 46.1129C52.9597 49.208 52.2584 49.9093 48.1718 49.0992C40.3372 47.5516 39.4788 40.6238 34.4976 36.5977Z" fill="#DD5353"/>
<path d="M34.0501 21.7389C33.1917 21.3278 31.8376 20.8804 30.8945 20.8442C31.1122 14.4725 29.9515 8.85045 34.0501 3.44603C34.5458 2.79314 36.8068 0.375054 37.5926 0.459687C38.3181 0.54432 39.382 3.01077 39.5634 3.66365C41.7517 11.462 36.8551 15.2221 34.0501 21.7268V21.7389Z" fill="#DD5353"/>
<path d="M21.2103 30.1777C21.2949 30.9032 21.7906 32.5837 22.105 33.2124C16.8577 35.7031 10.752 40.1886 4.70682 38.6169C4.07812 38.4476 1.07969 37.1056 0.934604 36.5373C0.716976 35.7272 1.90184 34.1918 2.39755 33.6114C6.48411 28.7632 8.76921 30.5525 11.5742 30.6251C14.7902 30.7097 18.0063 30.5163 21.1982 30.1777H21.2103Z" fill="#DD5353"/>
<path d="M38.1005 32.995C38.3181 32.4993 38.8501 30.7099 38.8863 30.2988C43.5291 30.7099 48.1476 30.7462 52.7903 30.2988C55.4986 31.4232 58.5454 33.7083 59.9358 36.3199C58.086 38.5324 53.2377 39.1732 50.5294 38.738C47.6882 38.2785 41.1714 34.2766 38.0884 32.995H38.1005Z" fill="#F8AEAE"/>
<path d="M25.2725 36.598C21.6816 39.802 20.7144 43.9248 16.5432 46.8386C14.2702 48.4346 10.4375 49.9338 7.70508 49.0391C9.10757 38.9677 10.8728 41.277 16.8817 37.8433C18.7195 36.7915 20.8111 35.1472 22.5642 33.9019C22.9632 34.5064 24.668 36.2353 25.2604 36.598H25.2725Z" fill="#F8AEAE"/>
</g>
<defs>
<clipPath id="clip0_100_6360">
<rect width="60" height="58.8889" fill="white"/>
</clipPath>
</defs>
</svg>
