<svg width="107" height="40" viewBox="0 0 107 40" fill="none" xmlns="http://www.w3.org/2000/svg">
<g clip-path="url(#clip0_100_6349)">
<path d="M106.944 3.27628C106.944 3.27628 106.553 2.44499 106.504 2.29829C102.787 1.17359 94.3766 0 90.4157 0C69.5355 0 55.5502 5.81907 53.4964 6.69927C51.4915 5.81907 37.5062 0 16.5771 0C12.5673 0 4.20545 1.17359 0.489067 2.29829C0.391267 2.44499 0.0489688 3.22738 0.0489688 3.27628C6.9012e-05 3.56968 0.0489688 9.14425 0.146768 9.43765C0.537966 10.7579 2.68956 10.9535 3.22745 12.3716C3.76535 13.9853 4.05875 27.335 9.38882 34.132C15.0612 41.4181 35.9414 42.7384 43.6187 33.3496C48.1174 27.8729 49.5355 20.2445 50.4646 18.6308C51.1492 17.4083 52.3228 16.7726 53.5453 16.7237C54.7678 16.7726 55.9414 17.4083 56.626 18.6308C57.5062 20.2445 58.9732 27.8729 63.472 33.3496C71.1492 42.7384 92.0783 41.4181 97.7018 34.132C102.983 27.335 103.276 13.9853 103.863 12.3716C104.352 10.9046 106.553 10.709 106.944 9.43765C107.042 9.14425 107.091 3.61858 107.042 3.27628H106.944Z" fill="#2C2423"/>
<path d="M99.3154 16.4794C99.3154 16.4794 99.3154 16.8217 99.3154 16.9684C99.022 21.516 97.2616 28.5576 94.5721 32.3718C93.5941 33.7899 90.3667 35.3547 86.3081 36.186C79.8533 37.5063 71.2469 36.9195 65.7702 31.0026C62.0049 26.895 60.0978 17.7996 61.467 12.4696C62.0049 10.1713 63.8142 8.5087 66.2103 7.3351C72.7628 4.00992 84.0098 4.10772 89.0464 4.84122C89.1442 4.84122 89.242 4.89012 89.3398 4.89012C91.8337 5.28131 94.5721 5.86811 96.577 7.4818C99.4621 9.87789 99.4621 13.0564 99.3154 16.4794Z" fill="#E5A63D"/>
<path d="M40.7334 31.0022C37.1637 34.8653 32.176 36.479 27.3838 36.7235C24.7921 36.8702 22.1515 36.6257 19.8532 36.1367C15.9412 35.3054 12.9584 33.7406 11.9804 32.3714C9.29087 28.5572 7.53048 21.5156 7.23708 16.968V16.7724C7.23708 16.7724 7.18818 16.5768 7.18818 16.479C7.04148 13.056 7.04148 9.8775 9.92657 7.53031H9.97546C9.97546 7.53031 10.22 7.28582 10.3667 7.23692C12.3227 5.81882 14.8654 5.28093 17.2126 4.88973C17.3104 4.88973 17.4082 4.84083 17.506 4.84083C17.7016 4.84083 17.8483 4.84083 18.0439 4.84083C25.33 3.91173 43.0317 4.25403 45.0855 12.5181C46.4547 17.8482 44.5965 26.9435 40.7823 31.0511L40.7334 31.0022Z" fill="#E5A63D"/>
<path d="M3.71672 4.35235C6.5529 3.71665 6.8463 7.72643 4.74361 8.11763C2.15193 8.55772 1.76073 4.79244 3.71672 4.35235Z" fill="#FBC210"/>
<path d="M101.516 4.00969C104.205 3.56959 104.548 7.53047 102.201 7.77497C99.8045 7.97057 99.3644 4.40088 101.516 4.00969Z" fill="#FBC210"/>
<path d="M86.2592 36.1858C79.8045 37.5061 71.1981 36.9193 65.7213 31.0024C61.956 26.8949 60.049 17.7995 61.4182 12.4694C61.956 10.1711 63.7653 8.50856 66.1614 7.33496C74.2788 15.8435 80.5869 25.9169 86.2592 36.1858Z" fill="#F7C676"/>
<path d="M27.3838 36.7239C24.7922 36.8706 22.1516 36.6261 19.8533 36.1371C17.7506 32.7141 15.6479 29.2911 13.4474 25.9659C12.2738 24.1566 11.1002 22.3473 9.87774 20.5869C9.09534 19.4622 8.36184 18.3864 7.53055 17.3107L7.18825 16.8217C7.18825 16.8217 7.13935 16.5772 7.13935 16.4794C6.99265 13.0564 6.99265 9.87789 9.87774 7.5307H9.92664C9.92664 7.5307 10.1711 7.2862 10.3178 7.2373C12.9584 11.2471 15.6968 15.2569 18.1418 19.4133C19.9022 22.3473 25.7213 32.9097 26.8949 35.4525C27.0904 35.8437 27.286 36.2838 27.3838 36.7239Z" fill="#FDFDFD"/>
<path d="M26.8949 35.4521C25.7213 32.9093 19.9022 22.3469 18.1418 19.4129C15.6968 15.2565 12.9585 11.2467 10.3179 7.23691C12.2739 5.81882 14.8166 5.28092 17.1638 4.88972C17.2616 4.88972 17.3594 4.84082 17.4572 4.84082C17.6528 4.84082 17.7995 4.84082 17.9951 4.84082C21.956 14.7675 24.9389 25.0364 26.8949 35.501V35.4521Z" fill="#F7C676"/>
<path d="M13.4476 25.9655C15.6481 29.2907 17.7508 32.7137 19.8534 36.1367C15.9415 35.3054 12.9586 33.7406 11.9806 32.3714C9.29109 28.5572 7.5307 21.5157 7.2373 16.968V16.8213L7.5796 17.3103C8.4109 18.3861 9.14439 19.4619 9.92679 20.5866C11.1493 22.347 12.3229 24.1563 13.4965 25.9655H13.4476Z" fill="#F8A024"/>
</g>
<defs>
<clipPath id="clip0_100_6349">
<rect width="106.944" height="40" fill="white"/>
</clipPath>
</defs>
</svg>
