<svg width="32" height="32" viewBox="0 0 32 32" fill="none" xmlns="http://www.w3.org/2000/svg">
<path fill-rule="evenodd" clip-rule="evenodd" d="M24.9032 16C24.9032 20.9171 20.9171 24.9032 16 24.9032C14.0627 24.9032 12.2698 24.2844 10.8084 23.2337L23.2337 10.8084C24.2844 12.2698 24.9032 14.0627 24.9032 16ZM25.4451 8.59707C27.0456 10.6363 28 13.2067 28 16C28 22.6274 22.6274 28 16 28C13.2067 28 10.6363 27.0456 8.59707 25.4451L7.03036 27.0118L4.84061 24.822L6.42642 23.2362C4.90346 21.2245 4 18.7177 4 16C4 9.37258 9.37258 4 16 4C18.7177 4 21.2245 4.90346 23.2362 6.42642L24.8221 4.84055L27.0118 7.0303L25.4451 8.59707ZM8.6446 21.018L21.018 8.6446C19.5892 7.66795 17.8613 7.09677 16 7.09677C11.0829 7.09677 7.09677 11.0829 7.09677 16C7.09677 17.8613 7.66795 19.5892 8.6446 21.018Z" fill="black"/>
</svg>
