<svg width="32" height="32" viewBox="0 0 32 32" fill="none" xmlns="http://www.w3.org/2000/svg">
<path d="M12.5501 10.735C11.9501 11.655 11.2651 13.02 10.4951 14.83C10.2751 14.38 10.0901 14.0175 9.94006 13.7425C9.79006 13.4675 9.58756 13.15 9.33256 12.79C9.07756 12.43 8.82256 12.1475 8.56756 11.9425C8.31256 11.7375 7.99756 11.5625 7.62256 11.4175C7.24756 11.2725 6.84006 11.2 6.40006 11.2H3.04006C2.90006 11.2 2.78506 11.155 2.69506 11.065C2.60506 10.975 2.56006 10.86 2.56006 10.72V7.84C2.56006 7.7 2.60506 7.585 2.69506 7.495C2.78506 7.405 2.90006 7.36 3.04006 7.36H6.40006C8.90006 7.36 10.9501 8.485 12.5501 10.735ZM29.4401 22.72C29.4401 22.86 29.3951 22.975 29.3051 23.065L24.5051 27.865C24.4151 27.955 24.3001 28 24.1601 28C24.0301 28 23.9176 27.9525 23.8226 27.8575C23.7276 27.7625 23.6801 27.65 23.6801 27.52V24.64C23.3601 24.64 22.9351 24.6425 22.4051 24.6475C21.8751 24.6525 21.4701 24.6575 21.1901 24.6625C20.9101 24.6675 20.5451 24.6625 20.0951 24.6475C19.6451 24.6325 19.2901 24.6075 19.0301 24.5725C18.7701 24.5375 18.4501 24.485 18.0701 24.415C17.6901 24.345 17.3751 24.2525 17.1251 24.1375C16.8751 24.0225 16.5851 23.88 16.2551 23.71C15.9251 23.54 15.6301 23.34 15.3701 23.11C15.1101 22.88 14.8351 22.6125 14.5451 22.3075C14.2551 22.0025 13.9751 21.655 13.7051 21.265C14.2951 20.335 14.9751 18.97 15.7451 17.17C15.9651 17.62 16.1501 17.9825 16.3001 18.2575C16.4501 18.5325 16.6526 18.85 16.9076 19.21C17.1626 19.57 17.4176 19.8525 17.6726 20.0575C17.9276 20.2625 18.2426 20.4375 18.6176 20.5825C18.9926 20.7275 19.4001 20.8 19.8401 20.8H23.6801V17.92C23.6801 17.78 23.7251 17.665 23.8151 17.575C23.9051 17.485 24.0201 17.44 24.1601 17.44C24.2801 17.44 24.4001 17.49 24.5201 17.59L29.3051 22.375C29.3951 22.465 29.4401 22.58 29.4401 22.72ZM29.4401 9.28C29.4401 9.42 29.3951 9.535 29.3051 9.625L24.5051 14.425C24.4151 14.515 24.3001 14.56 24.1601 14.56C24.0301 14.56 23.9176 14.5125 23.8226 14.4175C23.7276 14.3225 23.6801 14.21 23.6801 14.08V11.2H19.8401C19.3601 11.2 18.9251 11.275 18.5351 11.425C18.1451 11.575 17.8001 11.8 17.5001 12.1C17.2001 12.4 16.9451 12.7075 16.7351 13.0225C16.5251 13.3375 16.3001 13.725 16.0601 14.185C15.7401 14.805 15.3501 15.66 14.8901 16.75C14.6001 17.41 14.3526 17.965 14.1476 18.415C13.9426 18.865 13.6726 19.39 13.3376 19.99C13.0026 20.59 12.6826 21.09 12.3776 21.49C12.0726 21.89 11.7026 22.305 11.2676 22.735C10.8326 23.165 10.3826 23.5075 9.91756 23.7625C9.45256 24.0175 8.92006 24.2275 8.32006 24.3925C7.72006 24.5575 7.08006 24.64 6.40006 24.64H3.04006C2.90006 24.64 2.78506 24.595 2.69506 24.505C2.60506 24.415 2.56006 24.3 2.56006 24.16V21.28C2.56006 21.14 2.60506 21.025 2.69506 20.935C2.78506 20.845 2.90006 20.8 3.04006 20.8H6.40006C6.88006 20.8 7.31506 20.725 7.70506 20.575C8.09506 20.425 8.44006 20.2 8.74006 19.9C9.04006 19.6 9.29506 19.2925 9.50506 18.9775C9.71506 18.6625 9.94006 18.275 10.1801 17.815C10.5001 17.195 10.8901 16.34 11.3501 15.25C11.6401 14.59 11.8876 14.035 12.0926 13.585C12.2976 13.135 12.5676 12.61 12.9026 12.01C13.2376 11.41 13.5576 10.91 13.8626 10.51C14.1676 10.11 14.5376 9.695 14.9726 9.265C15.4076 8.835 15.8576 8.4925 16.3226 8.2375C16.7876 7.9825 17.3201 7.7725 17.9201 7.6075C18.5201 7.4425 19.1601 7.36 19.8401 7.36H23.6801V4.48C23.6801 4.34 23.7251 4.225 23.8151 4.135C23.9051 4.045 24.0201 4 24.1601 4C24.2801 4 24.4001 4.05 24.5201 4.15L29.3051 8.935C29.3951 9.025 29.4401 9.14 29.4401 9.28Z" fill="black"/>
</svg>
